<?xml version="1.0" encoding="UTF-8"?>
<svg width="885" height="368" viewBox="0 0 885 368" xmlns="http://www.w3.org/2000/svg">
    <path id="moonloch" fill="#050502" fill-rule="evenodd" stroke="none" d="M 883.960938 204.1875 L 883.960938 204.1875 C 884.734375 205.820313 884.648438 207.367188 883.703125 208.828125 C 882.757813 210.289063 881.447266 211.599609 879.771484 212.759766 C 878.095703 213.919922 876.570313 214.886719 875.195313 215.660156 C 874.765625 215.917969 874.378906 216.132813 874.035156 216.304688 C 871.371094 218.109375 868.384766 219.484375 865.076172 220.429688 C 861.767578 221.375 858.523438 221.289063 855.34375 220.171875 C 853.023438 219.140625 851.5625 217.529297 850.960938 215.337891 C 850.359375 213.146484 850.058594 210.89064 850.058594 208.570313 C 849.972656 207.710938 849.929688 206.894531 849.929688 206.121094 C 849.757813 204.832031 849.628906 203.542969 849.542969 202.253906 C 849.027344 195.378876 848.296875 188.503937 847.351563 181.628906 C 846.921875 179.308578 846.492188 177.03125 846.0625 174.796875 C 844.945313 169.984344 844.214844 165.085968 843.871094 160.101563 C 843.699219 152.367142 844.214844 144.675827 845.417969 137.027344 C 845.417969 136.855469 845.417969 136.726563 845.417969 136.640625 C 846.535156 129.078094 847.007813 121.472702 846.835938 113.824219 C 846.835938 113.824219 846.835938 113.78125 846.835938 113.695313 C 846.835938 111.890625 846.599609 109.957031 846.126953 107.894531 C 845.654297 105.832031 844.429688 104.414063 842.453125 103.640625 C 840.304688 103.210938 838.392578 103.748047 836.716797 105.251953 C 835.041016 106.755859 833.644531 108.367188 832.527344 110.085938 C 832.527344 110.085938 832.484375 110.085938 832.398438 110.085938 C 825.437439 119.796921 819.378906 130.023376 814.222656 140.765625 C 814.222656 141.882813 814.222656 142.957031 814.222656 143.988281 C 814.222656 153.441452 814.308594 163.06636 814.480469 172.863281 C 814.566406 176.386734 814.974609 179.910141 815.705078 183.433594 C 816.435547 186.957047 818.003906 190.093735 820.410156 192.84375 C 821.355469 193.875 822.472656 194.734375 823.761719 195.421875 C 824.878906 196.109375 825.910156 196.925781 826.855469 197.871094 C 827.972656 198.902344 828.1875 200.0625 827.5 201.351563 C 827.328125 201.523438 827.15625 201.652344 826.984375 201.738281 C 826.8125 201.824219 826.640625 201.867188 826.46875 201.867188 C 819.937439 199.632813 813.320374 199.203125 806.617188 200.578125 C 803.867188 201.179688 801.289063 202.082031 798.882813 203.285156 C 797.164063 204.402344 795.402344 205.433594 793.597656 206.378906 C 792.996094 206.722656 792.394531 206.980469 791.792969 207.152344 C 790.761719 207.582031 789.773438 208.097656 788.828125 208.699219 C 788.65625 208.785156 788.527344 208.871094 788.441406 208.957031 C 788.011719 209.214844 787.646484 209.408203 787.345703 209.537109 C 787.044922 209.666016 786.59375 209.644531 785.992188 209.472656 C 785.90625 209.472656 785.798828 209.408203 785.669922 209.279297 C 785.541016 209.150391 785.476563 209.042969 785.476563 208.957031 C 785.390625 208.699219 785.347656 208.484375 785.347656 208.3125 C 785.347656 208.140625 785.390625 207.96875 785.476563 207.796875 C 785.5625 207.625 785.648438 207.496094 785.734375 207.410156 C 789.773438 203.628891 792.394531 199.22464 793.597656 194.197266 C 794.800781 189.169891 795.316406 184.035187 795.144531 178.792969 C 794.972656 174.152313 794.800781 169.812515 794.628906 165.773438 C 794.371094 160.101532 794.199219 154.085968 794.113281 147.726563 C 794.199219 139.820267 794.5 131.957077 795.015625 124.136719 C 795.960938 112.277283 796.132813 100.375061 795.53125 88.429688 C 795.1875 83.187469 794.886719 77.386749 794.628906 71.027344 C 794.371094 64.667938 794.199219 58.867218 794.113281 53.625 C 794.113281 52.59375 794.113281 51.5625 794.113281 50.53125 C 793.941406 46.835938 794.027344 43.183624 794.371094 39.574219 C 795.058594 36.050751 796.648438 33 799.140625 30.421875 C 801.375 27.929688 803.652344 25.480469 805.972656 23.074219 C 807.089844 21.871094 808.164063 20.710938 809.195313 19.59375 C 809.539063 19.25 809.839844 18.90625 810.097656 18.5625 C 810.957031 17.53125 811.880859 16.628906 812.869141 15.855469 C 813.857422 15.082031 815.082031 14.738281 816.542969 14.824219 C 818.261719 15.082031 819.980469 15.597656 821.699219 16.371094 C 822.300781 16.628906 822.902344 16.84375 823.503906 17.015625 C 825.652344 17.789063 827.84375 18.605469 830.078125 19.464844 C 830.851563 19.722656 831.667969 19.980469 832.527344 20.238281 C 835.792969 21.011719 838.628906 22.34375 841.035156 24.234375 C 842.925781 26.296875 844.300781 28.789063 845.160156 31.710938 C 845.417969 32.484375 845.675781 33.257813 845.933594 34.03125 C 846.191406 34.632813 846.449219 35.234375 846.707031 35.835938 C 847.480469 37.296875 848.103516 38.84375 848.576172 40.476563 C 849.048828 42.109375 849.15625 43.742188 848.898438 45.375 C 848.554688 46.921875 847.78125 48.296875 846.578125 49.5 C 845.375 50.703125 844.128906 51.777344 842.839844 52.722656 C 842.667969 52.808594 842.496094 52.9375 842.324219 53.109375 C 839.488281 55.515625 836.222656 56.847656 832.527344 57.105469 C 832.183594 57.105469 831.947266 56.955078 831.818359 56.654297 C 831.689453 56.353516 831.710938 56.074219 831.882813 55.816406 C 832.65625 54.613281 833.429688 53.410156 834.203125 52.207031 C 835.75 49.886719 837.296875 47.566406 838.84375 45.246094 C 840.21875 43.011719 840.046875 40.90625 838.328125 38.929688 C 837.382813 37.554688 836.308594 36.265625 835.105469 35.0625 C 833.902344 33.773438 832.527344 32.677734 830.980469 31.775391 C 829.433594 30.873047 827.714844 30.464844 825.824219 30.550781 C 823.675781 30.808594 821.849609 31.689453 820.345703 33.193359 C 818.841797 34.697266 817.746094 36.394531 817.058594 38.285156 C 815.339844 43.613312 814.609375 49.242157 814.867188 55.171875 C 814.867188 56.71875 814.824219 58.222656 814.738281 59.683594 C 814.652344 63.550781 814.544922 67.998016 814.416016 73.025391 C 814.287109 78.052765 814.222656 82.5 814.222656 86.367188 C 814.050781 96.765686 814.007813 107.121033 814.09375 117.433594 C 814.351563 117.089844 814.609375 116.746094 814.867188 116.402344 C 815.984375 114.855453 817.058594 113.308609 818.089844 111.761719 C 819.464844 109.785156 820.839844 107.722656 822.214844 105.574219 C 825.222656 100.761688 828.488281 96.25 832.011719 92.039063 C 833.730469 90.0625 835.792969 88.537109 838.199219 87.462891 C 840.605469 86.388672 843.097656 85.464844 845.675781 84.691406 C 846.621094 84.433594 847.566406 84.132813 848.511719 83.789063 C 848.683594 83.789063 848.855469 83.746094 849.027344 83.660156 C 850.230469 83.230469 851.390625 82.929688 852.507813 82.757813 C 853.625 82.585938 854.828125 82.800781 856.117188 83.402344 C 858.179688 84.519531 859.855469 86.066406 861.144531 88.042969 C 863.035156 90.707031 864.238281 93.607422 864.753906 96.744141 C 865.269531 99.880859 865.484375 103.039063 865.398438 106.21875 C 865.3125 112.406281 865.097656 118.636688 864.753906 124.910156 C 864.667969 126.285156 864.582031 127.703125 864.496094 129.164063 C 864.066406 136.726593 863.873047 144.310516 863.916016 151.916016 C 863.958984 159.521515 864.625 167.062469 865.914063 174.539063 C 866 174.882813 866.085938 175.226563 866.171875 175.570313 C 867.632813 182.187531 868.277344 188.890594 868.105469 195.679688 C 868.105469 195.765625 868.105469 195.851563 868.105469 195.9375 C 867.933594 197.914063 867.976563 199.976563 868.234375 202.125 C 868.492188 204.273438 869.351563 206.078125 870.8125 207.539063 C 872.359375 208.65625 874.164063 208.742188 876.226563 207.796875 C 878.289063 206.851563 880.09375 205.777344 881.640625 204.574219 C 882.070313 204.316406 882.414063 204.058594 882.671875 203.800781 C 882.929688 203.714844 883.166016 203.714844 883.380859 203.800781 C 883.595703 203.886719 883.789063 204.015625 883.960938 204.1875 Z M 770.523438 158.683594 L 770.523438 158.683594 C 771.8125 160.917984 772.542969 163.324203 772.714844 165.902344 C 772.800781 166.160156 772.84375 166.417969 772.84375 166.675781 C 774.046875 172.777374 773.101563 178.578094 770.007813 184.078125 C 767 188.718781 763.089844 192.585922 758.277344 195.679688 C 753.121094 199.20314 747.621094 202.124985 741.777344 204.445313 C 738.855469 205.476563 735.933594 205.841797 733.011719 205.541016 C 730.089844 205.240234 727.167969 204.703125 724.246094 203.929688 C 724.160156 203.929688 724.074219 203.886719 723.988281 203.800781 C 717.80072 202.683594 712.085938 200.449234 706.84375 197.097656 C 697.218689 190.222626 691.761719 181.113342 690.472656 169.769531 C 690.128906 165.042938 690 160.273468 690.085938 155.460938 C 690.171875 153.656235 690.214844 151.851578 690.214844 150.046875 C 690.214844 148.32811 690.171875 146.60939 690.085938 144.890625 C 690 139.906219 690.085938 134.878937 690.34375 129.808594 C 690.429688 126.972641 690.708984 124.11525 691.181641 121.236328 C 691.654297 118.357407 692.621094 115.67189 694.082031 113.179688 C 696.917969 109.054688 700.183594 105.230469 703.878906 101.707031 C 704.480469 101.191406 705.039063 100.632813 705.554688 100.03125 C 709.507813 95.820313 713.976563 92.125 718.960938 88.945313 C 723.945313 85.765625 729.445313 83.789063 735.460938 83.015625 C 746.031311 82.414063 754.882751 85.808563 762.015625 93.199219 C 764.765625 96.464844 766.785156 99.988281 768.074219 103.769531 C 768.761719 104.714844 769.320313 105.746094 769.75 106.863281 C 769.921875 107.121094 770.09375 107.378906 770.265625 107.636719 C 771.46875 110.214844 772.5 112.792953 773.359375 115.371094 C 773.789063 117.089859 773.380859 118.550781 772.134766 119.753906 C 770.888672 120.957031 769.449219 122.03125 767.816406 122.976563 C 766.699219 123.578125 765.753906 124.179688 764.980469 124.78125 C 764.636719 125.039063 764.25 125.382813 763.820313 125.8125 C 763.304688 126.414063 762.746094 126.929688 762.144531 127.359375 C 761.542969 127.789063 760.855469 128.046875 760.082031 128.132813 C 759.222656 128.046875 758.621094 127.703125 758.277344 127.101563 C 757.933594 126.5 757.71875 125.8125 757.632813 125.039063 C 757.546875 124.523438 757.460938 124.007813 757.375 123.492188 C 757.375 122.203125 757.117188 120.957031 756.601563 119.753906 C 756 118.550781 755.3125 117.347656 754.539063 116.144531 C 753.078125 113.824203 751.402344 111.675781 749.511719 109.699219 C 746.332031 106.777344 743.023438 104.027344 739.585938 101.449219 C 738.039063 100.246094 736.470703 99.666016 734.880859 99.708984 C 733.291016 99.751953 731.59375 99.988281 729.789063 100.417969 C 727.554688 100.933594 725.363281 101.535156 723.214844 102.222656 C 718.402344 103.683594 714.535156 106.347656 711.613281 110.214844 C 710.324219 112.277359 709.59375 114.44725 709.421875 116.724609 C 709.25 119.001968 709.25 121.300766 709.421875 123.621094 C 709.421875 123.792969 709.421875 123.964844 709.421875 124.136719 C 709.765625 129.035187 709.59375 133.890594 708.90625 138.703125 C 708.734375 140.164063 708.519531 141.582031 708.261719 142.957031 C 707.488281 146.222672 707.144531 149.488266 707.230469 152.753906 C 707.660156 155.589859 708.390625 158.382797 709.421875 161.132813 C 709.9375 162.76564 710.410156 164.398422 710.839844 166.03125 C 711.011719 166.632813 711.140625 167.234375 711.226563 167.835938 C 711.828125 171.70314 713.203125 175.183578 715.351563 178.277344 C 716.898438 180.167969 718.746094 181.628906 720.894531 182.660156 C 723.042969 183.691406 725.277344 184.550781 727.597656 185.238281 C 729.230469 185.839844 730.90625 186.441406 732.625 187.042969 C 733.484375 187.300781 734.34375 187.558594 735.203125 187.816406 C 735.71875 188.074219 736.277344 188.289063 736.878906 188.460938 C 739.027344 189.492188 741.175781 190.007813 743.324219 190.007813 C 745.300781 189.75 747.212891 188.783203 749.060547 187.107422 C 750.908203 185.431641 752.519531 183.777344 753.894531 182.144531 C 754.238281 181.714844 754.582031 181.328125 754.925781 180.984375 C 756.558594 179.09375 758.105469 177.117188 759.566406 175.054688 C 759.824219 174.710938 760.125 174.324219 760.46875 173.894531 C 761.070313 173.207031 761.607422 172.498047 762.080078 171.767578 C 762.552734 171.037109 762.875 170.371094 763.046875 169.769531 C 763.132813 168.910156 762.960938 168.09375 762.53125 167.320313 C 762.101563 166.546875 761.542969 165.945313 760.855469 165.515625 C 760.425781 165.257813 760.039063 165 759.695313 164.742188 C 758.492188 164.054688 757.203125 163.496094 755.828125 163.066406 C 753.164063 162.207031 750.757813 162.636703 748.609375 164.355469 C 746.546875 166.503922 746.589844 168.695297 748.738281 170.929688 C 748.738281 170.929688 748.78125 170.972656 748.867188 171.058594 C 749.726563 171.832031 750.285156 172.777344 750.542969 173.894531 C 750.714844 175.097656 750.414063 176 749.640625 176.601563 C 748.867188 177.203125 747.921875 177.375 746.804688 177.117188 C 745.515625 176.601563 744.3125 175.871094 743.195313 174.925781 C 742.851563 174.582031 742.464844 174.28125 742.035156 174.023438 C 740.746094 172.90625 740.144531 171.101578 740.230469 168.609375 C 740.316406 166.117172 740.960938 163.6465 742.164063 161.197266 C 743.367188 158.748032 744.914063 157.050781 746.804688 156.105469 C 749.554688 155.074219 752.433594 154.580078 755.441406 154.623047 C 758.449219 154.666016 761.371094 154.988281 764.207031 155.589844 C 766.871094 155.761719 768.976563 156.792953 770.523438 158.683594 Z M 671.652344 137.800781 L 671.652344 137.800781 C 671.824219 139.347672 672.039063 140.851563 672.296875 142.3125 C 673.328125 147.210968 673.542969 152.152313 672.941406 157.136719 C 671.738281 162.636749 669.417969 167.621078 665.980469 172.089844 C 663.058594 176.042999 659.964844 179.824203 656.699219 183.433594 C 655.839844 184.464844 654.980469 185.496094 654.121094 186.527344 C 651.714844 189.363297 649.308594 192.199203 646.902344 195.035156 C 646.472656 195.550781 646.042969 196.066406 645.613281 196.582031 C 644.324219 198.300781 642.90625 199.804688 641.359375 201.09375 C 639.554688 202.210938 637.513672 202.683594 635.236328 202.511719 C 632.958984 202.339844 630.703125 201.996094 628.46875 201.480469 C 627.351563 201.222656 626.277344 201.007813 625.246094 200.835938 C 624.386719 200.75 623.527344 200.664063 622.667969 200.578125 C 620.347656 200.320313 618.070313 199.890625 615.835938 199.289063 C 613.601563 198.515625 611.625 197.355469 609.90625 195.808594 C 609.820313 195.722656 609.734375 195.636719 609.648438 195.550781 C 608.617188 194.777344 607.585938 194.003906 606.554688 193.230469 C 602.773438 190.566391 599.421875 187.558609 596.5 184.207031 C 593.234375 179.394501 591 174.152374 589.796875 168.480469 C 586.960938 156.01947 586.402344 143.38678 588.121094 130.582031 C 588.207031 130.410156 588.25 130.195313 588.25 129.9375 C 588.507813 123.921844 589.796875 118.164093 592.117188 112.664063 C 594.953125 106.906219 598.261719 101.449249 602.042969 96.292969 C 602.214844 96.121094 602.34375 95.949219 602.429688 95.777344 C 602.515625 95.691406 602.601563 95.605469 602.6875 95.519531 C 605.007813 92.425781 607.671875 89.632813 610.679688 87.140625 C 614.804688 83.1875 619.660156 80.609375 625.246094 79.40625 C 626.621094 79.320313 627.996094 79.363281 629.371094 79.535156 C 629.800781 79.535156 630.230469 79.578125 630.660156 79.664063 C 632.378906 79.664063 634.097656 79.535156 635.816406 79.277344 C 636.160156 79.277344 636.503906 79.234375 636.847656 79.148438 C 639.425781 78.804688 641.875 79.277344 644.195313 80.566406 C 648.835938 83.144531 653.154297 86.302734 657.150391 90.041016 C 661.146484 93.779297 664.347656 98.011688 666.753906 102.738281 C 668.558594 106.433594 669.697266 110.279297 670.169922 114.275391 C 670.642578 118.2715 670.921875 122.332016 671.007813 126.457031 C 671.007813 130.238297 671.222656 134.019516 671.652344 137.800781 Z M 651.027344 165.773438 L 651.027344 165.773438 C 651.972656 162.249985 652.359375 158.64064 652.1875 154.945313 C 652.1875 154.429688 652.1875 153.914063 652.1875 153.398438 C 652.1875 145.406204 651.671875 137.37114 650.640625 129.292969 C 650.640625 129.121094 650.597656 128.90625 650.511719 128.648438 C 649.996094 124.437485 649.652344 120.183609 649.480469 115.886719 C 649.394531 115.113281 649.351563 114.339844 649.351563 113.566406 C 649.4375 111.675781 649.351563 109.892578 649.09375 108.216797 C 648.835938 106.541016 648.148438 104.886719 647.03125 103.253906 C 644.539063 100.074219 641.617188 97.367188 638.265625 95.132813 C 637.835938 94.789063 637.40625 94.445313 636.976563 94.101563 C 635.515625 92.898438 633.925781 91.845703 632.207031 90.943359 C 630.488281 90.041016 628.640625 89.804688 626.664063 90.234375 C 623.484375 90.921875 620.240234 92.210938 616.931641 94.101563 C 613.623047 95.992188 611.195313 98.398438 609.648438 101.320313 C 608.53125 104.070313 607.886719 106.949219 607.714844 109.957031 C 607.542969 111.417969 607.328125 112.835938 607.070313 114.210938 C 606.554688 116.875015 605.867188 119.45311 605.007813 121.945313 C 605.09375 129.765671 605.523438 137.521439 606.296875 145.212891 C 607.070313 152.904343 608.660156 160.445282 611.066406 167.835938 C 612.269531 171.789078 613.945313 175.527328 616.09375 179.050781 C 618.5 182.058609 621.59375 183.949219 625.375 184.722656 C 626.320313 185.066406 627.222656 185.410156 628.082031 185.753906 C 629.886719 186.527344 631.648438 187.042969 633.367188 187.300781 C 635.085938 187.558594 636.761719 187 638.394531 185.625 C 641.058594 182.789047 643.378906 179.695328 645.355469 176.34375 C 645.613281 175.828125 645.914063 175.269531 646.257813 174.667969 C 648.234375 171.917953 649.824219 168.95314 651.027344 165.773438 Z M 636.203125 133.933594 L 636.203125 133.933594 C 636.546875 134.621094 636.933594 135.351563 637.363281 136.125 C 638.050781 137.242188 638.673828 138.402344 639.232422 139.605469 C 639.791016 140.808594 640.113281 141.925781 640.199219 142.957031 C 640.199219 144.074219 639.833984 145.191406 639.103516 146.308594 C 638.373047 147.425781 637.535156 148.5 636.589844 149.53125 C 635.902344 150.390625 635.300781 151.164063 634.785156 151.851563 C 632.378906 155.632828 630.359375 159.585922 628.726563 163.710938 C 628.554688 164.054688 628.296875 164.291016 627.953125 164.419922 C 627.609375 164.548828 627.265625 164.441406 626.921875 164.097656 C 624.6875 161.261703 623.097656 158.039078 622.152344 154.429688 C 622.152344 154.34375 622.109375 154.257813 622.023438 154.171875 C 621.25 151.851547 620.347656 149.617203 619.316406 147.46875 C 619.058594 146.867188 618.757813 146.308594 618.414063 145.792969 C 617.726563 144.675781 617.210938 143.515625 616.867188 142.3125 C 616.609375 141.023438 616.78125 139.734375 617.382813 138.445313 C 617.984375 137.15625 618.714844 135.910156 619.574219 134.707031 C 620.089844 133.847656 620.5625 133.074219 620.992188 132.386719 C 621.765625 130.839828 622.410156 129.207047 622.925781 127.488281 C 623.699219 124.910141 624.816406 122.54689 626.277344 120.398438 C 626.535156 120.140625 626.814453 119.96875 627.115234 119.882813 C 627.416016 119.796875 627.695313 119.882813 627.953125 120.140625 C 628.8125 121.171875 629.542969 122.289063 630.144531 123.492188 C 632.378906 126.843765 634.398438 130.324203 636.203125 133.933594 Z M 364.855469 137.800781 L 364.855469 137.800781 C 365.027344 139.347672 365.242188 140.851563 365.5 142.3125 C 366.53125 147.210968 366.746094 152.152313 366.144531 157.136719 C 364.941406 162.636749 362.621124 167.621078 359.183594 172.089844 C 356.261719 176.042999 353.167999 179.824203 349.902344 183.433594 C 349.042969 184.464844 348.183594 185.496094 347.324219 186.527344 C 344.917969 189.363297 342.511719 192.199203 340.105469 195.035156 C 339.675781 195.550781 339.246094 196.066406 338.816406 196.582031 C 337.527344 198.300781 336.109375 199.804688 334.5625 201.09375 C 332.757813 202.210938 330.716797 202.683594 328.439453 202.511719 C 326.162109 202.339844 323.90625 201.996094 321.671875 201.480469 C 320.554688 201.222656 319.480469 201.007813 318.449219 200.835938 C 317.589844 200.75 316.730469 200.664063 315.871094 200.578125 C 313.550781 200.320313 311.273438 199.890625 309.039063 199.289063 C 306.804688 198.515625 304.828125 197.355469 303.109375 195.808594 C 303.023438 195.722656 302.9375 195.636719 302.851563 195.550781 C 301.820313 194.777344 300.789063 194.003906 299.757813 193.230469 C 295.976532 190.566391 292.625 187.558609 289.703125 184.207031 C 286.437469 179.394501 284.203125 174.152374 283 168.480469 C 280.164063 156.01947 279.605469 143.38678 281.324219 130.582031 C 281.410156 130.410156 281.453125 130.195313 281.453125 129.9375 C 281.710938 123.921844 283 118.164093 285.320313 112.664063 C 288.15625 106.906219 291.464813 101.449249 295.246094 96.292969 C 295.417969 96.121094 295.546875 95.949219 295.632813 95.777344 C 295.71875 95.691406 295.804688 95.605469 295.890625 95.519531 C 298.210938 92.425781 300.875 89.632813 303.882813 87.140625 C 308.007843 83.1875 312.863251 80.609375 318.449219 79.40625 C 319.824219 79.320313 321.199219 79.363281 322.574219 79.535156 C 323.003906 79.535156 323.433594 79.578125 323.863281 79.664063 C 325.582031 79.664063 327.300781 79.535156 329.019531 79.277344 C 329.363281 79.277344 329.707031 79.234375 330.050781 79.148438 C 332.628906 78.804688 335.078125 79.277344 337.398438 80.566406 C 342.039093 83.144531 346.357391 86.302734 350.353516 90.041016 C 354.34964 93.779297 357.550781 98.011688 359.957031 102.738281 C 361.761719 106.433594 362.900391 110.279297 363.373047 114.275391 C 363.845703 118.2715 364.125 122.332016 364.210938 126.457031 C 364.210938 130.238297 364.425781 134.019516 364.855469 137.800781 Z M 344.230469 165.773438 L 344.230469 165.773438 C 345.175781 162.249985 345.5625 158.64064 345.390625 154.945313 C 345.390625 154.429688 345.390625 153.914063 345.390625 153.398438 C 345.390625 145.406204 344.875 137.37114 343.84375 129.292969 C 343.84375 129.121094 343.800781 128.90625 343.714844 128.648438 C 343.199219 124.437485 342.855469 120.183609 342.683594 115.886719 C 342.597656 115.113281 342.554688 114.339844 342.554688 113.566406 C 342.640625 111.675781 342.554688 109.892578 342.296875 108.216797 C 342.039063 106.541016 341.351563 104.886719 340.234375 103.253906 C 337.742188 100.074219 334.820343 97.367188 331.46875 95.132813 C 331.039063 94.789063 330.609375 94.445313 330.179688 94.101563 C 328.71875 92.898438 327.128906 91.845703 325.410156 90.943359 C 323.691406 90.041016 321.84375 89.804688 319.867188 90.234375 C 316.687469 90.921875 313.44339 92.210938 310.134766 94.101563 C 306.826141 95.992188 304.398438 98.398438 302.851563 101.320313 C 301.734375 104.070313 301.089844 106.949219 300.917969 109.957031 C 300.746094 111.417969 300.53125 112.835938 300.273438 114.210938 C 299.757813 116.875015 299.070313 119.45311 298.210938 121.945313 C 298.296875 129.765671 298.726563 137.521439 299.5 145.212891 C 300.273438 152.904343 301.863281 160.445282 304.269531 167.835938 C 305.472656 171.789078 307.148438 175.527328 309.296875 179.050781 C 311.703125 182.058609 314.796844 183.949219 318.578125 184.722656 C 319.523438 185.066406 320.425781 185.410156 321.285156 185.753906 C 323.089844 186.527344 324.851563 187.042969 326.570313 187.300781 C 328.289063 187.558594 329.964844 187 331.597656 185.625 C 334.261719 182.789047 336.582031 179.695328 338.558594 176.34375 C 338.816406 175.828125 339.117188 175.269531 339.460938 174.667969 C 341.4375 171.917953 343.027344 168.95314 344.230469 165.773438 Z M 329.40625 133.933594 L 329.40625 133.933594 C 329.75 134.621094 330.136719 135.351563 330.566406 136.125 C 331.253906 137.242188 331.876953 138.402344 332.435547 139.605469 C 332.994141 140.808594 333.316406 141.925781 333.402344 142.957031 C 333.402344 144.074219 333.037109 145.191406 332.306641 146.308594 C 331.576172 147.425781 330.738281 148.5 329.792969 149.53125 C 329.105469 150.390625 328.503906 151.164063 327.988281 151.851563 C 325.582031 155.632828 323.5625 159.585922 321.929688 163.710938 C 321.757813 164.054688 321.5 164.291016 321.15625 164.419922 C 320.8125 164.548828 320.46875 164.441406 320.125 164.097656 C 317.890625 161.261703 316.300781 158.039078 315.355469 154.429688 C 315.355469 154.34375 315.3125 154.257813 315.226563 154.171875 C 314.453125 151.851547 313.550781 149.617203 312.519531 147.46875 C 312.261719 146.867188 311.960938 146.308594 311.617188 145.792969 C 310.929688 144.675781 310.414063 143.515625 310.070313 142.3125 C 309.8125 141.023438 309.984375 139.734375 310.585938 138.445313 C 311.1875 137.15625 311.917969 135.910156 312.777344 134.707031 C 313.292969 133.847656 313.765625 133.074219 314.195313 132.386719 C 314.96875 130.839828 315.613281 129.207047 316.128906 127.488281 C 316.902344 124.910141 318.019531 122.54689 319.480469 120.398438 C 319.738281 120.140625 320.017578 119.96875 320.318359 119.882813 C 320.619141 119.796875 320.898438 119.882813 321.15625 120.140625 C 322.015625 121.171875 322.746094 122.289063 323.347656 123.492188 C 325.582031 126.843765 327.601563 130.324203 329.40625 133.933594 Z M 504.71875 236.027344 C 507.382813 233.535141 508.628906 230.613297 508.457031 227.261719 C 508.027344 224.511703 507.339844 221.976578 506.394531 219.65625 C 505.964844 218.28125 505.535156 216.863281 505.105469 215.402344 C 504.847656 214.285156 504.632813 213.082031 504.460938 211.792969 C 504.203125 210.160156 503.902344 208.65625 503.558594 207.28125 C 503.472656 207.195313 503.429688 207.109375 503.429688 207.023438 C 503.257813 206.59375 503.064453 206.142578 502.849609 205.669922 C 502.634766 205.197266 502.3125 204.832031 501.882813 204.574219 C 500.9375 204.058594 499.798828 203.929688 498.466797 204.1875 C 497.134766 204.445313 495.824219 204.832031 494.535156 205.347656 C 493.589844 205.691406 492.730469 205.949219 491.957031 206.121094 C 491.269531 206.292969 490.496094 206.421875 489.636719 206.507813 C 488.347656 206.59375 487.123047 206.830078 485.962891 207.216797 C 484.802734 207.603516 483.921875 208.355469 483.320313 209.472656 C 482.546875 211.019531 482.138672 212.759766 482.095703 214.693359 C 482.052734 216.626953 482.160156 218.410156 482.417969 220.042969 C 482.503906 220.644531 482.71875 221.224609 483.0625 221.783203 C 483.40625 222.341797 483.835938 222.728516 484.351563 222.943359 C 484.867188 223.158203 485.425781 223.007813 486.027344 222.492188 C 486.285156 222.234375 486.435547 221.912109 486.478516 221.525391 C 486.521484 221.138672 486.542969 220.730469 486.542969 220.300781 L 486.542969 219.011719 C 487.144531 216.949219 488.347656 215.273438 490.152344 213.984375 C 491.613281 213.125 492.988281 213.125 494.277344 213.984375 C 495.566406 214.84375 496.46875 215.960938 496.984375 217.335938 C 497.757813 219.742203 498.015625 222.191391 497.757813 224.683594 C 497.757813 227.519547 496.425781 229.539063 493.761719 230.742188 C 492.300781 231.34375 490.839844 231.988281 489.378906 232.675781 C 488.863281 232.847656 488.347656 233.0625 487.832031 233.320313 L 487.574219 233.320313 C 486.542969 233.835938 485.46875 234.265625 484.351563 234.609375 C 483.234375 234.953125 482.117188 235.082031 481 234.996094 C 479.367188 234.738281 478.314453 233.964844 477.841797 232.675781 C 477.369141 231.386719 477.089844 229.96875 477.003906 228.421875 L 475.972656 213.46875 C 475.628906 207.453094 475.199219 200.234421 474.683594 191.8125 C 474.082031 181.328064 473.458984 166.41806 472.814453 147.082031 C 472.169922 127.746002 471.761719 114.339874 471.589844 106.863281 C 471.589844 104.285156 471.890625 101.191406 472.492188 97.582031 C 473.09375 94.058594 473.394531 90.921875 473.394531 88.171875 C 473.652344 84.5625 472.75 81.296875 470.6875 78.375 C 468.367188 75.710938 465.638702 74.378906 462.501953 74.378906 C 459.365204 74.378906 456.378906 75.367188 453.542969 77.34375 C 450.792969 79.40625 448.214844 81.726563 445.808594 84.304688 C 445.550781 84.648438 445.292969 84.949219 445.035156 85.207031 C 441.855438 88.386719 438.761719 91.609375 435.753906 94.875 C 429.910126 101.148468 424.496124 107.808563 419.511719 114.855469 C 419.339844 115.113281 419.167969 115.414063 418.996094 115.757813 C 418.824219 115.929688 418.695313 116.101563 418.609375 116.273438 C 418.609375 113.523422 418.566406 110.816406 418.480469 108.152344 L 418.222656 92.425781 C 418.222656 88.902344 418.179688 85.378906 418.09375 81.855469 L 418.09375 80.308594 C 418.265625 78.246094 418.007813 76.269531 417.320313 74.378906 C 416.289063 72.316406 414.871094 71.521484 413.066406 71.994141 C 411.261719 72.466797 409.757813 73.433594 408.554688 74.894531 C 406.492188 77.214844 404.472656 79.535156 402.496094 81.855469 C 399.746094 85.207031 396.867188 88.472656 393.859375 91.652344 C 389.046844 96.550812 384.062531 101.191406 378.90625 105.574219 L 378.777344 105.574219 L 378.777344 105.703125 C 378.261719 105.960938 377.746094 106.390625 377.230469 106.992188 C 376.714844 107.59375 376.414063 108.195313 376.328125 108.796875 C 376.242188 109.398438 376.542969 110 377.230469 110.601563 C 378.261719 111.203125 379.550781 111.267578 381.097656 110.794922 C 382.644531 110.322266 383.976563 109.785156 385.09375 109.183594 L 385.609375 108.925781 C 387.328125 108.152344 389.003906 107.292969 390.636719 106.347656 C 390.808594 106.175781 390.980469 106.046875 391.152344 105.960938 C 391.238281 105.875 391.324219 105.832031 391.410156 105.832031 C 392.183594 105.402344 392.914063 104.972656 393.601563 104.542969 L 394.117188 104.285156 C 394.289063 104.199219 394.482422 104.091797 394.697266 103.962891 C 394.912109 103.833984 395.148438 103.726563 395.40625 103.640625 C 395.921875 103.46875 396.544922 103.404297 397.275391 103.447266 C 398.005859 103.490234 398.585938 103.726563 399.015625 104.15625 C 399.101563 104.414063 399.144531 104.800781 399.144531 105.316406 C 399.144531 105.832031 399.101563 106.347656 399.015625 106.863281 L 399.015625 135.09375 C 398.84375 145.406296 398.671875 155.675735 398.5 165.902344 C 398.328125 171.574249 398.15625 177.203094 397.984375 182.789063 L 397.984375 184.851563 C 397.984375 187.085938 397.8125 189.320313 397.46875 191.554688 C 397.125 193.789063 396.136719 195.679688 394.503906 197.226563 L 394.375 197.226563 C 392.484375 198.859375 390.25 200.019531 387.671875 200.707031 C 386.898438 200.878906 386.275391 201.201172 385.802734 201.673828 C 385.330078 202.146484 385.136719 202.769531 385.222656 203.542969 C 385.308594 204.488281 385.695313 205.175781 386.382813 205.605469 C 387.070313 206.035156 387.886719 206.25 388.832031 206.25 C 389.863281 206.078125 390.851563 205.691406 391.796875 205.089844 C 392.742188 204.488281 393.666016 204.037109 394.568359 203.736328 C 395.470703 203.435547 396.523438 203.199219 397.726563 203.027344 C 399.960938 202.683594 402.109375 202.125 404.171875 201.351563 C 405.117188 201.09375 406.019531 200.792969 406.878906 200.449219 C 411.089874 199.246094 415.300751 199.117188 419.511719 200.0625 C 421.660156 200.578125 423.722656 201.265625 425.699219 202.125 C 427.847656 203.070313 429.974609 203.800781 432.080078 204.316406 C 434.185547 204.832031 436.398438 204.832031 438.71875 204.316406 C 438.976563 204.316406 439.169922 204.166016 439.298828 203.865234 C 439.427734 203.564453 439.40625 203.285156 439.234375 203.027344 C 438.03125 201.394531 436.591797 200.191406 434.916016 199.417969 C 433.240234 198.644531 431.457031 198.042969 429.566406 197.613281 L 427.246094 196.839844 C 425.613281 196.324219 424.109375 195.59375 422.734375 194.648438 C 421.359375 193.703125 420.457031 192.371094 420.027344 190.652344 C 419.597656 188.074203 419.46875 185.324234 419.640625 182.402344 L 419.640625 178.921875 C 419.46875 164.656174 419.253906 150.347733 418.996094 135.996094 L 418.996094 134.320313 C 421.488281 129.507782 424.281219 124.910172 427.375 120.527344 C 430.125 116.660141 433.003906 112.92189 436.011719 109.3125 L 437.300781 107.765625 C 439.621094 104.585938 442.371063 101.964844 445.550781 99.902344 C 446.066406 99.644531 446.667969 99.386719 447.355469 99.128906 C 448.042969 98.871094 448.6875 98.785156 449.289063 98.871094 C 449.976563 99.042969 450.40625 99.451172 450.578125 100.095703 C 450.75 100.740234 450.835938 101.40625 450.835938 102.09375 C 450.921875 102.265625 450.964844 102.480469 450.964844 102.738281 C 451.222656 105.230469 451.394531 107.765625 451.480469 110.34375 L 451.480469 111.761719 C 451.480469 115.800797 451.738281 119.79686 452.253906 123.75 C 452.511719 125.468765 452.791016 133.031189 453.091797 146.4375 C 453.392578 159.843811 453.671875 169.124969 453.929688 174.28125 L 454.380859 182.853516 C 454.509766 185.30275 454.617188 187 454.703125 187.945313 C 455.132813 192.671906 455.175781 197.355438 454.832031 201.996094 C 454.746094 207.238312 455.132813 211.878876 455.992188 215.917969 C 456.507813 218.839859 456.9375 222.234344 457.28125 226.101563 C 457.28125 227.390625 457.195313 228.894531 457.023438 230.613281 C 456.851563 232.332031 456.744141 234.007813 456.701172 235.640625 C 456.658203 237.273438 456.894531 238.648438 457.410156 239.765625 C 458.183594 241.140625 459.236328 242.257813 460.568359 243.117188 C 461.900391 243.976563 463.296875 244.707031 464.757813 245.308594 C 465.273438 245.480469 465.746094 245.695313 466.175781 245.953125 C 467.980469 246.898438 469.570313 248.058594 470.945313 249.433594 C 472.492188 250.894531 474.253906 252.097656 476.230469 253.042969 C 479.582062 254.417969 482.761719 254.203125 485.769531 252.398438 C 492.902374 247.929657 499.21875 242.472687 504.71875 236.027344 Z M 572.265625 164.484375 C 572.523438 162.679672 572.394531 160.960953 571.878906 159.328125 C 571.621094 158.726563 571.277344 158.275391 570.847656 157.974609 C 570.417969 157.673828 569.859375 157.4375 569.171875 157.265625 C 566.59375 156.492188 563.84375 155.847656 560.921875 155.332031 C 560.148438 155.246094 559.375 155.074219 558.601563 154.816406 C 556.96875 154.386719 555.335938 154.128906 553.703125 154.042969 C 552.070313 153.957031 550.523438 154.429688 549.0625 155.460938 C 546.398438 157.867203 544.59375 160.874985 543.648438 164.484375 C 543.304688 165.515625 542.960938 166.503906 542.617188 167.449219 C 542.53125 167.621094 542.509766 167.792969 542.552734 167.964844 C 542.595703 168.136719 542.703125 168.265625 542.875 168.351563 C 544.507813 169.382813 545.96875 169.167969 547.257813 167.707031 C 547.859375 166.933594 548.417969 166.117188 548.933594 165.257813 C 549.363281 164.484375 549.835938 163.753906 550.351563 163.066406 C 550.4375 162.980469 550.480469 162.894531 550.480469 162.808594 C 551.511719 163.066406 552.5 163.324219 553.445313 163.582031 C 554.648438 163.839844 555.808594 164.140625 556.925781 164.484375 L 558.214844 164.742188 C 558.902344 164.828125 559.589844 165.042969 560.277344 165.386719 C 562.425781 166.503906 563.199219 168.26561 562.597656 170.671875 C 562.082031 172.39064 561.4375 174.023438 560.664063 175.570313 L 559.632813 177.632813 C 559.546875 177.976563 559.417969 178.320313 559.246094 178.664063 C 558.730469 180.039063 558.085938 181.328125 557.3125 182.53125 C 556.539063 183.734375 555.378906 184.59375 553.832031 185.109375 C 552.371094 185.539063 550.867188 185.710938 549.320313 185.625 C 548.546875 185.539063 547.730469 185.539063 546.871094 185.625 L 546.613281 185.625 C 545.582031 185.710938 544.59375 185.753906 543.648438 185.753906 C 541.15625 185.667969 539.480469 184.507813 538.621094 182.273438 C 537.160156 177.203094 536.386719 172.003937 536.300781 166.675781 C 536.128906 159.371063 535.957031 152.023468 535.785156 144.632813 C 535.699219 130.453049 535.226563 116.445389 534.367188 102.609375 C 533.765625 93.499939 533.722656 85.378937 534.238281 78.246094 C 534.753906 71.113251 535.613281 63.421936 536.816406 55.171875 C 537.074219 53.195313 537.332031 51.132813 537.589844 48.984375 C 538.277344 43.914032 539.4375 38.929718 541.070313 34.03125 C 541.671875 32.226563 542.1875 30.421875 542.617188 28.617188 L 543.132813 27.070313 L 543.390625 26.039063 C 543.648438 25.4375 543.841797 24.792969 543.970703 24.105469 C 544.099609 23.417969 544.035156 22.773438 543.777344 22.171875 C 543.261719 21.140625 542.574219 20.646484 541.714844 20.689453 C 540.855469 20.732422 539.996094 21.011719 539.136719 21.527344 C 538.277344 22.042969 537.546875 22.644531 536.945313 23.332031 C 536.34375 23.847656 535.699219 24.363281 535.011719 24.878906 C 533.035156 26.167969 530.929688 27.070313 528.695313 27.585938 C 525.515625 28.101563 522.378906 28.015625 519.285156 27.328125 C 519.199219 27.328125 519.15625 27.285156 519.15625 27.199219 L 519.027344 27.199219 C 518.941406 27.113281 518.855469 27.070313 518.769531 27.070313 C 514.042969 24.921875 509.746094 22.128937 505.878906 18.691406 C 502.183594 14.738251 499.734375 10.183624 498.53125 5.027344 C 498.1875 4.082031 497.779297 3.308594 497.306641 2.707031 C 496.833984 2.105469 496.082031 1.976563 495.050781 2.320313 C 494.019531 2.75 493.375 3.458984 493.117188 4.447266 C 492.859375 5.435547 492.773438 6.445313 492.859375 7.476563 C 493.03125 11.257843 493.804688 14.953094 495.179688 18.5625 C 495.351563 18.992188 495.566406 19.421875 495.824219 19.851563 L 496.082031 20.367188 L 496.082031 20.625 C 496.167969 20.710938 496.210938 20.839844 496.210938 21.011719 C 497.070313 22.300781 497.929688 23.632813 498.789063 25.007813 C 500.507813 27.929688 502.269531 30.765625 504.074219 33.515625 C 504.933594 34.890625 505.835938 36.265625 506.78125 37.640625 C 508.671875 40.304688 510.390625 43.011719 511.9375 45.761719 C 513.054688 47.996094 513.957031 50.230469 514.644531 52.464844 C 514.902344 53.238281 515.160156 53.96875 515.417969 54.65625 C 515.761719 72.617279 515.804688 89.632751 515.546875 105.703125 C 515.289063 123.836029 515.460938 143.042862 516.0625 163.324219 C 516.148438 168.824249 516.449219 174.238251 516.964844 179.566406 C 517.050781 180.855469 517.136719 182.1875 517.222656 183.5625 C 517.136719 186.914078 517.609375 190.093735 518.640625 193.101563 C 520.273438 196.968781 522.615234 199.761719 525.666016 201.480469 C 528.716797 203.199219 532.261719 204.1875 536.300781 204.445313 C 540.769531 204.617188 544.808594 203.865234 548.417969 202.189453 C 552.027344 200.513672 555.636719 198.472672 559.246094 196.066406 C 559.417969 195.894531 559.632813 195.722656 559.890625 195.550781 C 563.757813 193.230453 567.066406 190.351578 569.816406 186.914063 C 571.707031 183.820297 572.523438 180.511734 572.265625 176.988281 L 572.265625 175.441406 C 572.351563 173.636703 572.351563 171.832047 572.265625 170.027344 L 572.265625 164.484375 Z M 177.683594 226.875 C 177.597656 226.53125 177.511719 226.230469 177.425781 225.972656 C 177.425781 225.628906 177.382813 225.242188 177.296875 224.8125 C 177.125 223.4375 176.824219 222.0625 176.394531 220.6875 C 175.964844 219.3125 175.191406 218.367188 174.074219 217.851563 C 172.613281 217.421875 171.044937 217.486328 169.369141 218.044922 C 167.693344 218.603516 166.253906 219.3125 165.050781 220.171875 C 164.878906 220.34375 164.771484 220.558594 164.728516 220.816406 C 164.685547 221.074219 164.728516 221.310547 164.857422 221.525391 C 164.986328 221.740234 165.222656 221.847656 165.566406 221.847656 C 167.972672 221.761719 169.433594 223.029282 169.949219 225.650391 C 170.464844 228.2715 170.121094 230.892563 168.917969 233.513672 C 167.714844 236.134781 165.738297 237.445313 162.988281 237.445313 C 161.011703 237.273438 159.421875 236.414063 158.21875 234.867188 C 157.015625 233.320313 156.199219 231.644531 155.769531 229.839844 C 155.253906 226.746078 155.167969 223.60939 155.511719 220.429688 C 155.597656 219.3125 155.640625 218.195313 155.640625 217.078125 C 155.726563 212.523407 155.662109 206.529327 155.447266 199.095703 C 155.232422 191.662079 154.867188 185.710968 154.351563 181.242188 C 153.75 176.687469 153.234375 166.353592 152.804688 150.240234 C 152.375 134.126877 152.246094 123.792984 152.417969 119.238281 C 152.503906 115.542953 152.71875 111.890625 153.0625 108.28125 C 153.492188 104.328125 153.792969 100.417969 153.964844 96.550781 C 154.050781 92.941406 153.835938 89.332031 153.320313 85.722656 C 153.0625 84.089844 152.71875 82.392578 152.289063 80.630859 C 151.859375 78.869141 151.171875 77.300781 150.226563 75.925781 C 148.42186 73.777344 146.037125 72.703125 143.072266 72.703125 C 140.107407 72.703125 137.42189 73.21875 135.015625 74.25 C 131.92186 75.539063 129.17189 77.34375 126.765625 79.664063 C 124.35936 81.984375 122.125015 84.433594 120.0625 87.011719 L 119.804688 87.269531 C 113.015594 94.91803 106.871124 102.996033 101.371094 111.503906 C 101.027344 104.285126 100.296883 97.152374 99.179688 90.105469 C 99.007813 89.160156 98.878906 88.214844 98.792969 87.269531 C 98.535156 84.605469 98.019539 82.070313 97.246094 79.664063 C 96.472649 77.257813 94.925797 75.453125 92.605469 74.25 C 86.847626 71.84375 81.347679 72.015625 76.105469 74.765625 C 70.863258 77.515625 66.394547 81.082031 62.699219 85.464844 C 56.167938 92.941437 50.36721 100.933533 45.296875 109.441406 C 44.867184 103.769501 44.437504 98.140656 44.007813 92.554688 C 43.664063 88.171875 43.363281 83.789063 43.105469 79.40625 C 43.105469 79.0625 43.0625 78.632813 42.976563 78.117188 C 42.976563 76.398438 42.783207 74.658203 42.396484 72.896484 C 42.009762 71.134766 41.000008 69.953125 39.367188 69.351563 C 38.421871 69.09375 37.541019 69.115234 36.724609 69.416016 C 35.908199 69.716797 35.156254 70.167969 34.46875 70.769531 C 32.406239 72.316406 30.515633 74.035156 28.796875 75.925781 C 28.023434 76.785156 27.207035 77.601563 26.347656 78.375 L 8.945313 95.261719 C 8.343746 95.863281 7.613285 96.507813 6.753906 97.195313 C 4.777334 98.742188 2.972664 100.525391 1.339844 102.544922 C -0.292977 104.564453 -0.851565 106.734375 -0.335938 109.054688 C -0.335938 109.3125 -0.228517 109.505859 -0.013672 109.634766 C 0.201173 109.763672 0.437499 109.785156 0.695313 109.699219 C 2.757822 108.925781 4.777334 108.109375 6.753906 107.25 C 7.613285 106.992188 8.429684 106.691406 9.203125 106.347656 C 9.976566 106.003906 10.792965 105.660156 11.652344 105.316406 C 13.371103 104.371094 15.089834 103.726563 16.808594 103.382813 C 17.925785 102.609375 18.999996 102.824219 20.03125 104.027344 C 20.460941 104.714844 20.847656 105.488281 21.191406 106.347656 C 21.621098 107.464844 21.921875 108.625 22.09375 109.828125 C 22.4375 112.320328 22.523438 114.769516 22.351563 117.175781 C 22.265625 120.097672 22.179688 122.976547 22.09375 125.8125 C 21.492184 134.406296 21.535152 143.042923 22.222656 151.722656 L 23.253906 159.457031 C 24.542976 167.878952 25.058594 176.343704 24.800781 184.851563 L 24.800781 185.238281 C 24.714844 186.785156 24.521484 188.332031 24.220703 189.878906 C 23.919922 191.425781 23.25391 192.84375 22.222656 194.132813 C 20.503899 195.851563 18.484386 197.226563 16.164063 198.257813 C 15.992188 198.429688 15.777346 198.558594 15.519531 198.644531 C 14.660152 199.074219 13.757816 199.503906 12.8125 199.933594 C 11.351555 200.621094 9.955084 201.373047 8.623047 202.189453 C 7.29101 203.005859 6.195316 204.144531 5.335938 205.605469 L 5.335938 205.863281 C 5.078123 206.464844 5.035156 207.001953 5.207031 207.474609 C 5.378906 207.947266 5.80859 208.3125 6.496094 208.570313 C 7.09766 208.742188 7.806637 208.65625 8.623047 208.3125 C 9.439457 207.96875 10.191402 207.539063 10.878906 207.023438 C 11.308596 206.765625 11.695311 206.550781 12.039063 206.378906 L 13.84375 205.347656 C 15.390633 204.574219 16.894524 203.714844 18.355469 202.769531 C 18.871098 202.425781 19.386715 202.125 19.902344 201.867188 C 20.074219 201.695313 20.289063 201.566406 20.546875 201.480469 L 21.0625 201.222656 L 21.0625 201.09375 C 26.562527 199.890625 32.105442 199.03125 37.691406 198.515625 C 43.27737 198.085938 48.777317 198.472656 54.191406 199.675781 C 55.566414 199.933594 56.833977 199.890625 57.994141 199.546875 C 59.154305 199.203125 59.820313 198.257813 59.992188 196.710938 C 59.992188 196.453125 59.927734 196.259766 59.798828 196.130859 C 59.669922 196.001953 59.519531 195.894531 59.347656 195.808594 C 56.339828 194.863281 53.54689 193.552734 50.96875 191.876953 C 48.390614 190.201172 46.671879 187.730484 45.8125 184.464844 C 44.867184 179.566376 44.265625 174.625031 44.007813 169.640625 C 43.835938 167.320297 43.621094 165.085953 43.363281 162.9375 C 42.332027 155.718719 42.374996 148.500031 43.492188 141.28125 C 44.179691 137.929672 44.781246 134.535172 45.296875 131.097656 C 47.015633 127.660141 48.562492 124.093765 49.9375 120.398438 C 50.796883 118.164047 51.699211 115.972672 52.644531 113.824219 C 54.707039 108.839813 57.779274 104.457031 61.861328 100.675781 C 65.943382 96.894531 70.863251 95.605469 76.621094 96.808594 C 76.964844 102.996124 76.964844 109.226532 76.621094 115.5 C 76.535156 118.593765 76.449219 121.730453 76.363281 124.910156 C 76.363281 134.62114 76.578125 144.331985 77.007813 154.042969 C 77.265625 160.832062 77.609375 167.105438 78.039063 172.863281 C 78.210938 175.269547 78.382813 177.847641 78.554688 180.597656 C 78.898438 185.410187 79.242188 190.265594 79.585938 195.164063 L 79.585938 196.195313 C 79.585938 196.710938 79.628906 197.119141 79.714844 197.419922 C 79.800781 197.720703 80.015625 197.978516 80.359375 198.193359 C 80.703125 198.408203 81.30468 198.6875 82.164063 199.03125 C 83.796883 199.804688 85.42968 200.363281 87.0625 200.707031 C 88.69532 201.050781 90.199211 200.878906 91.574219 200.191406 C 96.300804 197.527328 101.285133 195.378906 106.527344 193.746094 C 106.699219 193.746094 106.849609 193.638672 106.978516 193.423828 C 107.107422 193.208984 107.128906 192.972656 107.042969 192.714844 C 106.785156 192.113281 106.462891 191.683594 106.076172 191.425781 C 105.689453 191.167969 105.238281 190.996094 104.722656 190.910156 L 103.433594 190.394531 C 102.402336 189.878906 101.757813 189.148438 101.5 188.203125 C 101.242188 187.257813 101.113281 186.269531 101.113281 185.238281 L 101.113281 184.078125 C 100.855469 181.929688 100.683594 179.824219 100.597656 177.761719 C 100.339844 174.066391 100.210938 170.800797 100.210938 167.964844 C 100.210938 165.128891 100.296875 161.863297 100.46875 158.167969 C 100.554688 153.785141 100.726563 149.445328 100.984375 145.148438 L 101.5 130.453125 C 101.757813 130.023438 101.972656 129.59375 102.144531 129.164063 C 104.894547 123.921844 107.773422 118.808624 110.78125 113.824219 C 115.164078 107.121063 120.835907 101.75 127.796875 97.710938 C 129.51564 96.679688 130.697266 96.572266 131.341797 97.388672 C 131.986328 98.205078 132.351563 99.408203 132.4375 100.998047 C 132.523438 102.587891 132.523438 104.027344 132.4375 105.316406 C 132.351563 105.660156 132.308594 105.960938 132.308594 106.21875 L 132.308594 107.765625 C 132.050781 111.71875 132.007813 115.67186 132.179688 119.625 C 132.609375 124.179703 133.060547 134.492111 133.533203 150.5625 C 134.005859 166.632889 134.328125 176.945282 134.5 181.5 C 134.671875 186.656281 134.800781 192.499969 134.886719 199.03125 C 134.886719 215.617279 135.746078 230.355408 137.464844 243.246094 C 137.464844 243.417969 137.507813 243.589844 137.59375 243.761719 C 137.765625 245.050781 138.044922 246.189453 138.431641 247.177734 C 138.818359 248.166016 139.65625 248.917969 140.945313 249.433594 C 142.148438 249.863281 143.351563 250.207031 144.554688 250.464844 C 145.15625 250.636719 145.714844 250.808594 146.230469 250.980469 L 147.519531 251.238281 C 149.238297 251.839844 150.999985 252.226563 152.804688 252.398438 C 155.64064 252.3125 158.218735 251.410156 160.539063 249.691406 C 163.976578 247.542953 167.285141 245.26564 170.464844 242.859375 L 172.011719 241.828125 C 173.214844 241.054688 174.375 240.173828 175.492188 239.185547 C 176.609375 238.197266 177.382813 237.101563 177.8125 235.898438 C 178.328125 234.523438 178.5 233.041016 178.328125 231.451172 C 178.15625 229.861328 177.941406 228.335938 177.683594 226.875 Z M 261.085938 142.3125 C 260.828125 140.851563 260.613281 139.347672 260.441406 137.800781 C 260.011719 134.019516 259.796875 130.238297 259.796875 126.457031 C 259.710938 122.332016 259.431641 118.2715 258.958984 114.275391 C 258.486328 110.279297 257.347656 106.433594 255.542969 102.738281 C 253.136719 98.011688 249.935577 93.779297 245.939453 90.041016 C 241.943329 86.302734 237.625031 83.144531 232.984375 80.566406 C 230.664047 79.277344 228.214859 78.804688 225.636719 79.148438 C 225.292969 79.234375 224.949219 79.277344 224.605469 79.277344 C 222.886703 79.535156 221.167984 79.664063 219.449219 79.664063 C 219.019531 79.578125 218.589844 79.535156 218.160156 79.535156 C 216.785156 79.363281 215.410156 79.320313 214.035156 79.40625 C 208.449188 80.609375 203.593765 83.1875 199.46875 87.140625 C 196.460922 89.632813 193.79689 92.425781 191.476563 95.519531 L 191.21875 95.777344 C 191.132813 95.949219 191.003906 96.121094 190.832031 96.292969 C 187.050766 101.449249 183.742203 106.906219 180.90625 112.664063 C 178.585922 118.164093 177.296875 123.921844 177.039063 129.9375 C 177.039063 130.195313 176.996094 130.410156 176.910156 130.582031 C 175.191391 143.38678 175.749985 156.01947 178.585938 168.480469 C 179.789063 174.152374 182.023422 179.394501 185.289063 184.207031 C 188.210953 187.558609 191.562485 190.566391 195.34375 193.230469 L 198.4375 195.550781 L 198.695313 195.808594 C 200.414078 197.355469 202.39061 198.515625 204.625 199.289063 C 206.85939 199.890625 209.136703 200.320313 211.457031 200.578125 L 214.035156 200.835938 C 215.066406 201.007813 216.140625 201.222656 217.257813 201.480469 C 219.492203 201.996094 221.748032 202.339844 224.025391 202.511719 C 226.30275 202.683594 228.343735 202.210938 230.148438 201.09375 C 231.695328 199.804688 233.113281 198.300781 234.402344 196.582031 L 235.691406 195.035156 L 242.910156 186.527344 L 245.488281 183.433594 C 248.753937 179.824203 251.847656 176.042999 254.769531 172.089844 C 258.207062 167.621078 260.527344 162.636749 261.730469 157.136719 C 262.332031 152.152313 262.117188 147.210968 261.085938 142.3125 Z M 240.976563 154.945313 C 241.148438 158.64064 240.761719 162.249985 239.816406 165.773438 C 238.613281 168.95314 237.023453 171.917953 235.046875 174.667969 C 234.703125 175.269531 234.402344 175.828125 234.144531 176.34375 C 232.167953 179.695328 229.847672 182.789047 227.183594 185.625 C 225.550766 187 223.875015 187.558594 222.15625 187.300781 C 220.437485 187.042969 218.675797 186.527344 216.871094 185.753906 C 216.011719 185.410156 215.109375 185.066406 214.164063 184.722656 C 210.382797 183.949219 207.289078 182.058609 204.882813 179.050781 C 202.73436 175.527328 201.058594 171.789078 199.855469 167.835938 C 197.449203 160.445282 195.859375 152.904343 195.085938 145.212891 C 194.3125 137.521439 193.882813 129.765671 193.796875 121.945313 C 194.65625 119.45311 195.34375 116.875015 195.859375 114.210938 C 196.117188 112.835938 196.332031 111.417969 196.503906 109.957031 C 196.675781 106.949219 197.320313 104.070313 198.4375 101.320313 C 199.98439 98.398438 202.412094 95.992188 205.720703 94.101563 C 209.029312 92.210938 212.273422 90.921875 215.453125 90.234375 C 217.429703 89.804688 219.277328 90.041016 220.996094 90.943359 C 222.714859 91.845703 224.304688 92.898438 225.765625 94.101563 L 227.054688 95.132813 C 230.406265 97.367188 233.32811 100.074219 235.820313 103.253906 C 236.9375 104.886719 237.625 106.541016 237.882813 108.216797 C 238.140625 109.892578 238.226563 111.675781 238.140625 113.566406 C 238.140625 114.339844 238.183594 115.113281 238.269531 115.886719 C 238.441406 120.183609 238.785156 124.437485 239.300781 128.648438 C 239.386719 128.90625 239.429688 129.121094 239.429688 129.292969 C 240.460938 137.37114 240.976563 145.406204 240.976563 153.398438 L 240.976563 154.945313 Z M 226.152344 136.125 C 225.722656 135.351563 225.335938 134.621094 224.992188 133.933594 C 223.187485 130.324203 221.167984 126.843765 218.933594 123.492188 C 218.332031 122.289063 217.601563 121.171875 216.742188 120.140625 C 216.484375 119.882813 216.205078 119.796875 215.904297 119.882813 C 215.603516 119.96875 215.324219 120.140625 215.066406 120.398438 C 213.605469 122.54689 212.488281 124.910141 211.714844 127.488281 C 211.199219 129.207047 210.554688 130.839828 209.78125 132.386719 C 209.351563 133.074219 208.878906 133.847656 208.363281 134.707031 C 207.503906 135.910156 206.773438 137.15625 206.171875 138.445313 C 205.570313 139.734375 205.398438 141.023438 205.65625 142.3125 C 206 143.515625 206.515625 144.675781 207.203125 145.792969 C 207.546875 146.308594 207.847656 146.867188 208.105469 147.46875 C 209.136719 149.617203 210.039063 151.851547 210.8125 154.171875 C 210.898438 154.257813 210.941406 154.34375 210.941406 154.429688 C 211.886719 158.039078 213.476547 161.261703 215.710938 164.097656 C 216.054688 164.441406 216.398438 164.548828 216.742188 164.419922 C 217.085938 164.291016 217.34375 164.054688 217.515625 163.710938 C 219.148453 159.585922 221.167953 155.632828 223.574219 151.851563 C 224.089844 151.164063 224.691406 150.390625 225.378906 149.53125 C 226.324219 148.5 227.162109 147.425781 227.892578 146.308594 C 228.623047 145.191406 228.988281 144.074219 228.988281 142.957031 C 228.902344 141.925781 228.580078 140.808594 228.021484 139.605469 C 227.462891 138.402344 226.839844 137.242188 226.152344 136.125 Z"/>
    <path id="games" fill="#050502" fill-rule="evenodd" stroke="none" d="M 871.824219 293.919922 L 871.824219 293.919922 C 871.880249 294.311859 871.992188 294.703766 872.160156 295.095703 C 872.440063 296.047546 872.608032 296.999329 872.664063 297.951172 C 872.664063 299.57489 872.160156 301.030579 871.152344 302.318359 C 868.91272 305.901703 866.421265 309.345032 863.677734 312.648438 C 863.677734 312.648438 863.64978 312.676422 863.59375 312.732422 C 861.634094 315.419922 859.142578 317.519531 856.119141 319.03125 C 854.551392 319.647125 853.039734 319.843109 851.583984 319.619141 C 850.128235 319.395172 848.616577 319.03125 847.048828 318.527344 C 846.824829 318.471344 846.600952 318.415375 846.376953 318.359375 C 845.761108 318.191406 845.145142 318.023438 844.529297 317.855469 C 841.39386 317.127594 838.454468 315.951843 835.710938 314.328125 C 833.135376 312.480469 831.091797 310.212891 829.580078 307.525391 C 829.524048 307.469391 829.496094 307.413422 829.496094 307.357422 C 828.488281 305.789703 827.564453 304.194031 826.724609 302.570313 C 826.612671 302.458344 826.528687 302.346344 826.472656 302.234375 C 826.360718 301.954407 826.192749 301.646484 825.96875 301.310547 C 825.296875 300.302734 824.848999 299.238953 824.625 298.119141 C 824.513062 297.559235 824.597046 297.083344 824.876953 296.691406 C 825.15686 296.299469 825.520874 295.935547 825.96875 295.599609 C 826.080688 295.431641 826.220703 295.291656 826.388672 295.179688 C 827.732422 293.891907 829.132141 292.688171 830.587891 291.568359 C 832.04364 290.392578 833.611328 289.356781 835.291016 288.460938 C 835.347046 288.460938 835.375 288.432953 835.375 288.376953 C 835.878906 288.096985 836.410767 287.873047 836.970703 287.705078 C 837.53064 287.537109 838.11853 287.565094 838.734375 287.789063 C 839.238281 288.013031 839.658203 288.348938 839.994141 288.796875 C 840.330078 289.244812 840.638062 289.692688 840.917969 290.140625 C 841.029907 290.308594 841.141968 290.476563 841.253906 290.644531 C 842.373718 292.380219 843.325562 294.14386 844.109375 295.935547 C 844.221313 296.215515 844.193359 296.439453 844.025391 296.607422 C 843.857422 296.775391 843.633423 296.803375 843.353516 296.691406 C 842.681641 296.299469 841.981812 295.879578 841.253906 295.431641 C 840.75 295.151672 840.274048 294.84375 839.826172 294.507813 C 839.602173 294.395844 839.378296 294.283844 839.154297 294.171875 C 838.986328 294.059906 838.818359 293.947906 838.650391 293.835938 C 837.474609 293.444 836.494751 293.639954 835.710938 294.423828 C 835.43103 294.647797 835.151001 294.927734 834.871094 295.263672 C 834.815063 295.319672 834.759155 295.375641 834.703125 295.431641 C 834.647095 295.48764 834.56311 295.54361 834.451172 295.599609 C 833.723267 296.215515 833.247437 296.943359 833.023438 297.783203 C 832.967407 298.23114 832.981445 298.623047 833.06543 298.958984 C 833.149414 299.294922 833.303345 299.630859 833.527344 299.966797 C 833.583374 300.022797 833.639282 300.078766 833.695313 300.134766 C 834.311157 301.310547 834.955078 302.458313 835.626953 303.578125 C 836.298828 304.641937 836.956665 305.551758 837.600586 306.307617 C 838.244507 307.063477 839.070313 307.861328 840.078125 308.701172 C 840.917969 309.429047 841.827759 309.904938 842.807617 310.128906 C 843.787476 310.352875 844.809204 310.492828 845.873047 310.548828 C 846.265015 310.604828 846.684937 310.660797 847.132813 310.716797 C 849.260437 310.884766 851.388 310.884766 853.515625 310.716797 C 853.571655 310.716797 853.599609 310.688812 853.599609 310.632813 C 854.327515 310.632813 854.957397 310.534821 855.489258 310.338867 C 856.021118 310.142914 856.539063 309.764984 857.042969 309.205078 C 857.714844 308.477203 858.330688 307.63739 858.890625 306.685547 C 859.338501 306.013672 859.758423 305.481781 860.150391 305.089844 C 860.542358 304.585938 860.864258 304.096039 861.116211 303.620117 C 861.368164 303.144196 861.522095 302.458344 861.578125 301.5625 C 861.578125 299.322906 861.074219 297.167328 860.066406 295.095703 C 858.498657 290.784485 855.503296 287.761078 851.080078 286.025391 C 849.232422 285.409485 847.356812 284.989594 845.453125 284.765625 C 843.493469 284.485657 841.56189 284.037781 839.658203 283.421875 C 835.682922 281.798157 832.617554 279.474609 830.461914 276.451172 C 828.306274 273.427734 826.472656 270.068359 824.960938 266.373047 C 824.904907 266.205078 824.820923 266.037109 824.708984 265.869141 C 823.757202 263.965485 823.113281 262.005859 822.777344 259.990234 C 822.721313 258.086578 823.085327 256.266937 823.869141 254.53125 C 824.149048 253.747391 824.513062 252.991547 824.960938 252.263672 C 825.128906 252.039719 825.268921 251.81575 825.380859 251.591797 C 826.724609 248.792297 828.65625 246.440765 831.175781 244.537109 C 831.623657 244.201172 832.099609 243.837234 832.603516 243.445313 C 833.443359 242.717438 834.339233 242.101563 835.291016 241.597656 C 836.074829 241.149734 836.98468 240.71582 838.020508 240.295898 C 839.056335 239.875977 840.022095 239.666016 840.917969 239.666016 C 842.541687 239.722 844.08136 239.694016 845.537109 239.582031 C 847.720703 239.246094 850.016235 239.302078 852.423828 239.75 C 855.895203 240.645844 859.226563 241.989578 862.417969 243.78125 C 863.425781 244.341156 864.321655 245.166992 865.105469 246.258789 C 865.889282 247.350586 866.589233 248.456375 867.205078 249.576172 C 867.652954 250.360031 868.072876 251.059891 868.464844 251.675781 C 868.520874 251.787766 868.604858 251.899734 868.716797 252.011719 C 869.50061 253.075531 870.144531 254.181305 870.648438 255.329102 C 871.152344 256.476898 871.292358 257.722656 871.068359 259.066406 C 870.396484 261.865906 868.996765 264.385406 866.869141 266.625 C 866.869141 266.625 866.869141 266.652985 866.869141 266.708984 C 866.253296 267.436859 865.46936 268.192688 864.517578 268.976563 C 863.789673 269.256531 863.075806 269.382477 862.375977 269.354492 C 861.676147 269.326508 861.018188 269.032562 860.402344 268.472656 C 860.066406 268.080719 859.842407 267.632813 859.730469 267.128906 C 859.61853 266.625 859.702515 266.149109 859.982422 265.701172 C 860.206421 265.421204 860.514282 265.197266 860.90625 265.029297 C 861.298218 264.861328 861.606079 264.63739 861.830078 264.357422 C 862.109985 264.021484 862.30603 263.685547 862.417969 263.349609 C 862.809937 262.621735 862.977905 261.809906 862.921875 260.914063 C 862.809937 259.85025 862.432007 258.828461 861.788086 257.848633 C 861.144165 256.868805 860.430298 255.903 859.646484 254.951172 C 858.862671 253.999344 858.190796 253.075531 857.630859 252.179688 C 857.518921 251.955734 857.378906 251.759766 857.210938 251.591797 C 857.098999 251.479813 857.015015 251.367844 856.958984 251.255859 C 856.455078 250.639969 855.783203 250.192062 854.943359 249.912109 C 854.103516 249.632156 853.235718 249.436203 852.339844 249.324219 C 851.779907 249.212234 851.248047 249.100266 850.744141 248.988281 C 850.016235 248.820313 849.288452 248.624344 848.560547 248.400391 C 847.216797 248.064453 845.873047 247.728516 844.529297 247.392578 C 844.473267 247.392578 844.417358 247.364578 844.361328 247.308594 C 843.297485 247.028641 842.303711 246.87468 841.379883 246.84668 C 840.456055 246.81868 839.490234 247.084625 838.482422 247.644531 C 838.090454 247.8125 837.698608 248.008469 837.306641 248.232422 C 836.466797 248.568359 835.710938 249.016266 835.039063 249.576172 C 834.143188 250.583984 833.49939 251.78775 833.107422 253.1875 C 832.995483 253.411453 832.911499 253.663406 832.855469 253.943359 C 832.351563 255.007172 832.407593 256.042969 833.023438 257.050781 C 833.191406 257.33075 833.359375 257.582672 833.527344 257.806641 C 833.751343 258.086609 833.947266 258.422516 834.115234 258.814453 C 834.451172 259.374359 834.759155 259.934235 835.039063 260.494141 C 835.486938 261.501953 836.004883 262.453766 836.592773 263.349609 C 837.180664 264.245453 838.00647 265.001282 839.070313 265.617188 C 840.190125 266.177094 841.421875 266.541016 842.765625 266.708984 C 843.49353 266.820953 844.221313 266.960938 844.949219 267.128906 C 846.516968 267.576843 848.056641 268.108704 849.568359 268.724609 C 852.759766 270.068359 855.839172 271.636047 858.806641 273.427734 C 859.254517 273.651703 859.702515 273.903625 860.150391 274.183594 C 862.445984 275.247406 864.321594 276.703125 865.777344 278.550781 C 866.28125 279.390625 866.673218 280.286438 866.953125 281.238281 C 867.121094 281.742188 867.345093 282.246094 867.625 282.75 C 867.736938 283.141937 867.876953 283.505859 868.044922 283.841797 C 868.604858 284.961609 869.136719 286.109375 869.640625 287.285156 C 870.25647 288.684906 870.788452 290.140625 871.236328 291.652344 C 871.292358 291.652344 871.320313 291.680328 871.320313 291.736328 C 871.320313 291.736328 871.320313 291.764313 871.320313 291.820313 C 871.320313 291.820313 871.320313 291.820313 871.320313 291.820313 C 871.376343 291.932281 871.404297 292.016266 871.404297 292.072266 C 871.516235 292.520203 871.60022 292.940094 871.65625 293.332031 C 871.71228 293.5 871.768188 293.695953 871.824219 293.919922 Z M 571.076172 225.892578 L 571.076172 225.892578 C 571.860046 226.564453 572.125977 227.27832 571.874023 228.03418 C 571.62207 228.790039 571.104187 229.447906 570.320313 230.007813 C 570.152344 230.119797 569.984375 230.231766 569.816406 230.34375 C 568.864563 231.6875 567.660828 232.807281 566.205078 233.703125 C 565.701172 233.983078 565.225281 234.291016 564.777344 234.626953 C 563.097656 235.634766 561.57196 236.740555 560.200195 237.944336 C 558.82843 239.148117 557.834656 240.785797 557.21875 242.857422 C 556.714844 244.985031 556.546875 247.154617 556.714844 249.366211 C 556.882813 251.577805 557.162781 253.747391 557.554688 255.875 C 557.666687 256.658875 557.806641 257.442688 557.974609 258.226563 C 558.702454 261.865906 559.234375 265.533203 559.570313 269.228516 C 559.79425 273.931671 559.766296 278.634735 559.486328 283.337891 C 559.430359 285.689453 559.346375 288.041016 559.234375 290.392578 C 558.842468 297.895203 558.702454 305.397766 558.814453 312.900391 C 558.926453 315.64389 559.094421 318.415344 559.318359 321.214844 C 559.598328 324.630219 559.780273 328.031555 559.864258 331.418945 C 559.948242 334.806335 559.682312 338.179688 559.066406 341.539063 C 557.330688 349.545624 553.831421 356.712219 548.568359 363.039063 C 547.392578 364.662781 545.964844 365.9505 544.285156 366.902344 C 542.493469 367.630219 540.645874 368.134125 538.742188 368.414063 C 538.630188 368.414063 538.51825 368.442047 538.40625 368.498047 C 533.983032 369.281891 529.503906 369.589844 524.96875 369.421875 C 521.049438 369.365875 517.60614 368.05014 514.638672 365.474609 C 511.279266 362.339172 508.115906 359.007843 505.148438 355.480469 C 504.7565 354.976563 504.364594 354.500641 503.972656 354.052734 C 501.397125 351.309235 499.129578 348.397797 497.169922 345.318359 C 495.322266 342.406891 495.014313 339.355469 496.246094 336.164063 C 497.085938 334.372375 498.219727 332.832703 499.647461 331.544922 C 501.075195 330.257141 502.572906 329.053406 504.140625 327.933594 C 506.044281 326.701813 507.807922 325.302094 509.431641 323.734375 C 509.823578 323.286469 510.215485 322.838531 510.607422 322.390625 C 511.391266 321.494781 512.259094 320.626953 513.210938 319.787109 C 515.61853 317.827454 518.25 317.463531 521.105469 318.695313 C 522.729187 319.367188 524.32489 320.151031 525.892578 321.046875 C 526.508484 321.382813 527.152344 321.71875 527.824219 322.054688 C 528.272156 322.278656 528.720032 322.502594 529.167969 322.726563 C 530.623718 323.398438 531.967468 324.182281 533.199219 325.078125 C 534.654968 326.309906 535.326843 327.709625 535.214844 329.277344 C 535.102844 330.845062 534.710938 332.440735 534.039063 334.064453 C 533.983093 334.232422 533.927063 334.400391 533.871094 334.568359 C 533.591125 335.352234 533.311218 336.136047 533.03125 336.919922 C 532.527344 338.48764 531.995422 340.055328 531.435547 341.623047 C 531.267578 342.182953 531.029602 342.728851 530.72168 343.260742 C 530.413757 343.792633 529.979797 344.198578 529.419922 344.478516 C 528.524109 344.870453 527.908203 344.758453 527.572266 344.142578 C 527.236328 343.526703 527.068359 342.756836 527.068359 341.833008 C 527.068359 340.90918 527.124329 340.195313 527.236328 339.691406 C 527.348328 338.963531 527.488281 338.207703 527.65625 337.423828 C 528.104187 335.688141 528.30011 333.994476 528.244141 332.342773 C 528.188171 330.691071 527.320313 329.333344 525.640625 328.269531 C 522.897095 326.757813 520.335632 326.71582 517.956055 328.143555 C 515.576477 329.571289 513.602844 331.628906 512.035156 334.316406 C 510.467438 337.003906 509.54361 339.551422 509.263672 341.958984 C 509.095703 344.254578 509.641602 346.102203 510.901367 347.501953 C 512.161133 348.901703 513.714844 350.105469 515.5625 351.113281 C 518.473999 352.625 521.133423 354.472656 523.541016 356.65625 C 525.052734 358.223969 526.676392 359.329742 528.412109 359.973633 C 530.147827 360.617523 531.995422 360.295593 533.955078 359.007813 C 535.522766 357.888 536.922546 356.600281 538.154297 355.144531 C 538.266296 355.032562 538.378235 354.892578 538.490234 354.724609 C 538.994141 354.164703 539.526062 353.604828 540.085938 353.044922 C 540.869812 352.317047 541.597656 351.533203 542.269531 350.693359 C 543.501282 349.125641 544.229187 347.333984 544.453125 345.318359 C 544.677063 343.302734 544.733093 341.287109 544.621094 339.271484 C 544.565125 338.263672 544.537109 337.339844 544.537109 336.5 L 544.789063 321.71875 C 544.901062 315.167938 544.985046 308.645203 545.041016 302.150391 C 545.153015 298.623047 545.237 295.067719 545.292969 291.484375 C 542.4375 293.947937 539.694031 296.523438 537.0625 299.210938 C 535.102844 301.338562 533.227234 303.522125 531.435547 305.761719 C 531.155579 306.097656 530.903625 306.433594 530.679688 306.769531 C 530.063782 307.609375 529.405945 308.351227 528.706055 308.995117 C 528.006165 309.639008 527.124329 310.072906 526.060547 310.296875 C 523.541016 310.632813 520.99353 310.772797 518.417969 310.716797 C 516.402344 310.884766 514.638672 310.32489 513.126953 309.037109 C 511.783203 307.58136 510.803375 305.901703 510.1875 303.998047 C 510.1315 303.830078 510.075531 303.690094 510.019531 303.578125 C 508.955719 300.890625 508.003906 298.147156 507.164063 295.347656 C 506.380219 292.548157 505.624359 289.748718 504.896484 286.949219 C 504.728516 286.389313 504.560547 285.829437 504.392578 285.269531 C 503.776703 283.365875 503.41275 281.434265 503.300781 279.474609 C 503.356781 277.179016 503.832672 274.995453 504.728516 272.923828 C 504.840485 272.69986 504.924469 272.475922 504.980469 272.251953 C 505.876312 269.844391 506.85611 267.436859 507.919922 265.029297 C 510.103516 259.878235 512.595032 254.923203 515.394531 250.164063 C 515.730469 249.604156 516.038391 249.044281 516.318359 248.484375 C 517.270203 246.580719 518.417969 244.873047 519.761719 243.361328 C 520.433594 242.801422 521.189453 242.381516 522.029297 242.101563 C 522.869141 241.821609 523.708984 241.597656 524.548828 241.429688 C 524.940735 241.373703 525.332703 241.289719 525.724609 241.177734 C 526.340515 241.06575 526.95636 240.925781 527.572266 240.757813 C 530.091797 240.085938 532.611328 239.554031 535.130859 239.162109 C 535.802734 239.106125 536.348633 239.176102 536.768555 239.37207 C 537.188477 239.568039 537.538391 240.001953 537.818359 240.673828 C 538.826172 243.361343 539.721985 246.132797 540.505859 248.988281 C 540.617859 249.324219 540.729797 249.660156 540.841797 249.996094 C 541.065735 250.723969 541.177734 251.451813 541.177734 252.179688 C 541.177734 252.907562 540.925781 253.579422 540.421875 254.195313 C 540.309875 254.307297 540.197937 254.363281 540.085938 254.363281 C 539.973938 254.363281 539.862 254.335281 539.75 254.279297 C 538.574219 253.327469 537.678406 252.207687 537.0625 250.919922 C 536.782532 250.416016 536.474609 249.912109 536.138672 249.408203 C 534.794922 247.672516 533.381165 247.196609 531.897461 247.980469 C 530.413757 248.764328 529.083984 249.85611 527.908203 251.255859 C 527.236328 252.039719 526.536438 252.823563 525.808594 253.607422 C 524.296875 255.17514 522.869141 256.798828 521.525391 258.478516 C 520.741516 259.766296 520.377625 261.166016 520.433594 262.677734 C 520.377625 262.957703 520.349609 263.23761 520.349609 263.517578 C 520.23761 265.141296 520.125671 266.792969 520.013672 268.472656 C 519.957703 268.864594 519.901672 269.284485 519.845703 269.732422 C 519.621765 272.587891 519.425781 275.415344 519.257813 278.214844 C 519.201843 278.326813 519.173828 278.438812 519.173828 278.550781 C 519.061829 280.0625 518.94989 281.574219 518.837891 283.085938 C 518.837891 283.253906 518.837891 283.39389 518.837891 283.505859 C 518.725891 284.233734 518.711914 284.919586 518.795898 285.563477 C 518.879883 286.207367 519.201843 286.837219 519.761719 287.453125 C 521.889343 289.58075 524.296875 291.288391 526.984375 292.576172 C 527.096375 292.632172 527.208313 292.688141 527.320313 292.744141 C 527.824219 293.024109 528.342102 293.262054 528.874023 293.458008 C 529.405945 293.653961 529.951843 293.695953 530.511719 293.583984 C 531.127625 293.416016 531.6875 293.164063 532.191406 292.828125 C 532.303406 292.716156 532.415344 292.632172 532.527344 292.576172 C 533.591125 291.904297 534.598938 291.204437 535.550781 290.476563 C 539.358093 287.621094 542.633423 284.317719 545.376953 280.566406 C 545.488953 274.351532 545.572937 268.164734 545.628906 262.005859 C 545.740906 257.022766 545.376953 252.067734 544.537109 247.140625 C 544.537109 246.916672 544.509094 246.692703 544.453125 246.46875 C 544.173157 245.125 543.991211 243.753265 543.907227 242.353516 C 543.823242 240.953766 544.089172 239.638031 544.705078 238.40625 C 545.544922 237.0625 546.720703 236.138672 548.232422 235.634766 C 549.744141 235.07486 551.255859 234.486984 552.767578 233.871094 C 553.495422 233.647141 554.223328 233.395187 554.951172 233.115234 L 561.585938 230.511719 C 564.329468 228.720047 567.240845 227.236328 570.320313 226.060547 C 570.432312 225.948563 570.54425 225.864578 570.65625 225.808594 C 570.76825 225.752609 570.908203 225.780594 571.076172 225.892578 Z M 758.613281 333.224609 C 758.669312 333.392578 758.72522 333.588531 758.78125 333.8125 C 758.949219 334.764343 759.089233 335.758118 759.201172 336.793945 C 759.31311 337.829773 759.201172 338.795563 758.865234 339.691406 C 758.585327 340.475281 758.081421 341.189117 757.353516 341.833008 C 756.62561 342.476898 755.869751 343.050781 755.085938 343.554688 L 754.078125 344.226563 C 752.00647 345.794281 749.850952 347.277985 747.611328 348.677734 C 746.099609 349.797546 744.419922 350.385406 742.572266 350.441406 C 741.396484 350.329437 740.248718 350.077484 739.128906 349.685547 L 738.289063 349.517578 C 737.953125 349.405609 737.589172 349.29361 737.197266 349.181641 C 736.413391 349.013672 735.629578 348.789703 734.845703 348.509766 C 734.005859 348.173828 733.459961 347.683929 733.208008 347.040039 C 732.956055 346.396149 732.774109 345.654297 732.662109 344.814453 C 732.60614 344.702484 732.578125 344.590485 732.578125 344.478516 C 731.458313 336.080048 730.898438 326.477905 730.898438 315.671875 C 730.842468 311.416656 730.758484 307.609375 730.646484 304.25 C 730.534485 301.282532 730.324524 294.563843 730.016602 284.09375 C 729.708679 273.623657 729.414734 266.904968 729.134766 263.9375 C 729.022766 261.361969 729.050781 258.786469 729.21875 256.210938 L 729.21875 255.203125 C 729.21875 255.035156 729.246765 254.839188 729.302734 254.615234 C 729.358704 253.775391 729.358704 252.83757 729.302734 251.801758 C 729.246765 250.765945 729.008789 249.982101 728.588867 249.450195 C 728.168945 248.918289 727.399109 248.988281 726.279297 249.660156 C 721.744141 252.291687 718.048828 255.790985 715.193359 260.158203 C 713.233704 263.405609 711.358093 266.736969 709.566406 270.152344 C 709.454407 270.432312 709.314453 270.712219 709.146484 270.992188 L 708.810547 280.566406 C 708.642578 283.365906 708.530579 286.193359 708.474609 289.048828 C 708.36261 291.45639 708.306641 293.583984 708.306641 295.431641 C 708.306641 297.279297 708.390625 299.406891 708.558594 301.814453 C 708.614563 303.158203 708.726563 304.529938 708.894531 305.929688 L 708.894531 306.685547 C 708.894531 307.357422 708.978516 308.001282 709.146484 308.617188 C 709.314453 309.233093 709.734375 309.708984 710.40625 310.044922 L 711.246094 310.380859 C 711.582031 310.436859 711.875977 310.548828 712.12793 310.716797 C 712.379883 310.884766 712.589844 311.164703 712.757813 311.556641 C 712.813782 311.724609 712.799805 311.878571 712.71582 312.018555 C 712.631836 312.158539 712.533875 312.228516 712.421875 312.228516 C 709.00647 313.292328 705.759155 314.692047 702.679688 316.427734 C 701.783813 316.875671 700.804077 316.98764 699.740234 316.763672 C 698.676392 316.539703 697.612671 316.175781 696.548828 315.671875 C 695.988892 315.447906 695.596985 315.265961 695.373047 315.125977 C 695.149109 314.985992 695.009094 314.818024 694.953125 314.62207 C 694.897156 314.426117 694.869141 314.160156 694.869141 313.824219 L 694.869141 313.152344 C 694.645203 309.960938 694.421204 306.797546 694.197266 303.662109 C 694.085266 301.870422 693.973328 300.190765 693.861328 298.623047 C 693.58136 294.871735 693.357422 290.784546 693.189453 286.361328 C 692.909485 280.034485 692.769531 273.707703 692.769531 267.380859 C 692.8255 265.309235 692.881531 263.265625 692.9375 261.25 C 693.161438 257.16275 693.161438 253.103531 692.9375 249.072266 C 689.186157 248.288406 685.980835 249.12825 683.321289 251.591797 C 680.661743 254.055344 678.660156 256.910797 677.316406 260.158203 C 676.7005 261.557953 676.112671 262.985657 675.552734 264.441406 C 674.65686 266.848969 673.649109 269.172516 672.529297 271.412109 C 672.193359 273.651703 671.801453 275.863281 671.353516 278.046875 C 670.62561 282.750031 670.597656 287.453094 671.269531 292.15625 C 671.4375 293.556 671.577454 295.011719 671.689453 296.523438 C 671.857422 299.770844 672.249329 302.990234 672.865234 306.181641 C 673.425171 308.309265 674.544922 309.918945 676.224609 311.010742 C 677.904297 312.102539 679.723938 312.95636 681.683594 313.572266 C 681.795593 313.628265 681.893555 313.698242 681.977539 313.782227 C 682.061523 313.866211 682.103516 313.992188 682.103516 314.160156 C 681.991516 315.167969 681.557617 315.783844 680.801758 316.007813 C 680.045898 316.231781 679.220093 316.259766 678.324219 316.091797 C 674.796875 315.307922 671.213562 315.055969 667.574219 315.335938 C 663.934875 315.671875 660.323608 316.23175 656.740234 317.015625 L 656.740234 317.099609 L 656.404297 317.267578 C 656.236328 317.323578 656.096375 317.407562 655.984375 317.519531 C 655.648438 317.6875 655.3125 317.883453 654.976563 318.107422 C 654.024719 318.723328 653.044922 319.283203 652.037109 319.787109 L 650.861328 320.458984 C 650.63739 320.570953 650.385437 320.710938 650.105469 320.878906 C 649.657532 321.214844 649.167664 321.494781 648.635742 321.71875 C 648.103821 321.942719 647.641907 321.998688 647.25 321.886719 C 646.802063 321.71875 646.522156 321.480804 646.410156 321.172852 C 646.298157 320.864899 646.326172 320.514984 646.494141 320.123047 L 646.494141 319.955078 C 647.054077 319.003235 647.767883 318.261414 648.635742 317.729492 C 649.503601 317.197571 650.413391 316.707703 651.365234 316.259766 C 651.98114 315.979797 652.56897 315.69989 653.128906 315.419922 C 653.296875 315.363922 653.436829 315.279938 653.548828 315.167969 C 655.060547 314.496094 656.376282 313.600281 657.496094 312.480469 C 658.167969 311.640625 658.601868 310.716797 658.797852 309.708984 C 658.993835 308.701172 659.119812 307.693359 659.175781 306.685547 L 659.175781 306.433594 C 659.34375 300.890594 659.007813 295.375671 658.167969 289.888672 L 657.496094 284.849609 C 657.048157 279.194641 657.020203 273.567749 657.412109 267.96875 C 657.468079 266.121094 657.524109 264.245453 657.580078 262.341797 C 657.692078 260.774078 657.636047 259.178406 657.412109 257.554688 C 657.30011 256.770813 657.104187 256.014984 656.824219 255.287109 C 656.600281 254.727203 656.348328 254.223312 656.068359 253.775391 C 655.396484 252.991531 654.696655 252.851563 653.96875 253.355469 C 652.848938 253.579422 651.729187 253.999344 650.609375 254.615234 C 650.049438 254.839188 649.517578 255.063141 649.013672 255.287109 C 648.509766 255.511078 647.977905 255.707031 647.417969 255.875 C 646.130188 256.434906 644.814453 256.966797 643.470703 257.470703 C 643.302734 257.526703 643.148743 257.512695 643.008789 257.428711 C 642.868835 257.344727 642.798828 257.21875 642.798828 257.050781 C 642.462891 255.539063 642.826782 254.125336 643.890625 252.80957 C 644.954468 251.493805 646.130188 250.332031 647.417969 249.324219 C 647.977905 248.876297 648.453796 248.456375 648.845703 248.064453 L 660.183594 237.0625 C 660.74353 236.558594 661.275391 236.026703 661.779297 235.466797 C 662.899109 234.235016 664.130859 233.115234 665.474609 232.107422 C 665.922546 231.7155 666.412415 231.421555 666.944336 231.225586 C 667.476257 231.029617 668.05011 231.015625 668.666016 231.183594 C 669.729858 231.575516 670.387695 232.345367 670.639648 233.493164 C 670.891602 234.640961 671.017578 235.774734 671.017578 236.894531 C 671.073547 237.230469 671.101563 237.510422 671.101563 237.734375 C 671.269531 240.589859 671.465515 243.445297 671.689453 246.300781 C 671.969421 249.940125 672.249329 253.607407 672.529297 257.302734 C 675.832703 251.759735 679.611938 246.552765 683.867188 241.681641 C 686.27478 238.826157 689.186157 236.502609 692.601563 234.710938 C 696.016968 232.919266 699.60022 232.807281 703.351563 234.375 C 704.863281 235.158859 705.871094 236.334625 706.375 237.902344 C 706.878906 239.470062 707.214844 241.121735 707.382813 242.857422 C 707.438782 243.473312 707.522766 244.089188 707.634766 244.705078 C 708.362671 249.296249 708.838562 253.943329 709.0625 258.646484 C 712.645874 253.103485 716.649048 247.840515 721.072266 242.857422 L 721.240234 242.689453 C 722.583984 241.00975 724.039673 239.414063 725.607422 237.902344 C 727.175171 236.390625 728.966797 235.214844 730.982422 234.375 C 732.550171 233.703125 734.299805 233.367188 736.231445 233.367188 C 738.163086 233.367188 739.716797 234.067047 740.892578 235.466797 C 741.508423 236.36264 741.956421 237.38443 742.236328 238.532227 C 742.516235 239.680023 742.740234 240.785797 742.908203 241.849609 C 743.244141 244.201187 743.384155 246.552719 743.328125 248.904297 C 743.216187 251.423843 743.020142 253.971344 742.740234 256.546875 C 742.516235 258.898438 742.376343 261.277985 742.320313 263.685547 C 742.208374 266.653015 742.292358 273.385681 742.572266 283.883789 C 742.852173 294.381897 743.18811 301.114563 743.580078 304.082031 C 743.916016 306.9935 744.153931 310.870728 744.293945 315.713867 C 744.43396 320.557007 744.475952 324.462219 744.419922 327.429688 C 744.419922 328.157562 744.391968 328.885406 744.335938 329.613281 C 744.111938 331.684906 744.167969 333.728516 744.503906 335.744141 C 744.783813 336.919922 745.315796 338.011719 746.099609 339.019531 C 746.883423 340.027344 747.91925 340.58725 749.207031 340.699219 C 750.998718 340.699219 752.286499 339.845398 753.070313 338.137695 C 753.854126 336.429993 754.078125 334.722351 753.742188 333.014648 C 753.40625 331.306946 752.454468 330.48111 750.886719 330.537109 C 750.66272 330.537109 750.508789 330.467133 750.424805 330.327148 C 750.34082 330.187164 750.312866 330.033203 750.34082 329.865234 C 750.368774 329.697266 750.438843 329.557281 750.550781 329.445313 C 751.334595 328.885406 752.272461 328.423492 753.364258 328.05957 C 754.456055 327.695648 755.477905 327.653656 756.429688 327.933594 C 757.157593 328.269531 757.661499 328.885406 757.941406 329.78125 C 758.221313 330.677094 758.417358 331.572906 758.529297 332.46875 C 758.585327 332.748688 758.613281 333.000641 758.613281 333.224609 Z M 644.94043 291.568359 C 645.024414 290.448547 644.898438 289.412781 644.5625 288.460938 C 643.610657 286.557281 642.057007 285.17157 639.901367 284.303711 C 637.745728 283.435852 635.688171 283.421875 633.728516 284.261719 C 633.336609 284.429688 632.902649 284.723633 632.426758 285.143555 C 631.950846 285.563477 631.572917 286.025391 631.292969 286.529297 C 631.013 287.033203 631.041016 287.509094 631.376953 287.957031 C 631.544922 288.237 631.782898 288.404938 632.09082 288.460938 C 632.398763 288.516927 632.692708 288.516927 632.972656 288.460938 C 633.980469 288.460938 634.988281 288.376953 635.996094 288.208984 C 635.996094 288.264984 636.024109 288.292969 636.080078 288.292969 C 638.207703 288.796875 639.383484 290.11261 639.607422 292.240234 C 639.551453 293.863953 639.159546 295.431641 638.431641 296.943359 C 638.375671 297.055328 638.347656 297.167328 638.347656 297.279297 C 637.84375 298.623047 637.157898 299.938782 636.290039 301.226563 C 635.42218 302.514343 634.260437 303.354156 632.804688 303.746094 C 631.013 304.026062 629.473328 303.564148 628.185547 302.360352 C 626.897766 301.156555 626.057922 299.714844 625.666016 298.035156 C 625.162109 295.459625 625.134094 292.828125 625.582031 290.140625 C 625.638 289.300781 625.694031 288.488953 625.75 287.705078 C 626.029968 282.330048 625.917969 276.955109 625.414063 271.580078 L 625.078125 266.373047 C 624.854187 262.957672 624.840149 259.542328 625.036133 256.126953 C 625.232117 252.711578 625.945923 249.380219 627.177734 246.132813 C 629.585327 240.253876 633.448547 235.550797 638.767578 232.023438 C 638.879578 231.967453 638.991516 231.883469 639.103516 231.771484 C 639.831421 231.379562 640.489258 230.861664 641.077148 230.217773 C 641.665039 229.573883 641.763 228.832031 641.371094 227.992188 C 640.923157 227.208328 640.209351 226.872391 639.229492 226.984375 C 638.249634 227.096359 637.423828 227.292313 636.751953 227.572266 C 634.45636 228.468109 632.356812 229.643875 630.453125 231.099609 C 628.045532 233.003265 625.330078 234.319 622.306641 235.046875 C 618.21936 235.71875 614.104187 235.998703 609.960938 235.886719 C 606.993469 235.830734 604.082031 235.914719 601.226563 236.138672 C 598.315063 236.362625 595.683594 237.258453 593.332031 238.826172 C 591.148438 240.449875 589.104858 242.241531 587.201172 244.201172 C 586.977234 244.425125 586.753235 244.621094 586.529297 244.789063 C 581.994141 248.932312 578.746765 253.887344 576.787109 259.654297 C 575.21936 265.141296 574.239563 270.740204 573.847656 276.451172 C 573.735657 277.011078 573.651672 277.598938 573.595703 278.214844 C 573.539734 279.054688 573.45575 279.922516 573.34375 280.818359 C 573.007813 283.281921 572.755859 285.773438 572.587891 288.292969 C 572.531921 291.484375 573.175781 294.563782 574.519531 297.53125 C 575.807312 300.554688 577.263 303.466125 578.886719 306.265625 C 579.110657 306.657562 579.334656 307.021484 579.558594 307.357422 C 580.622375 309.597015 582.022095 311.556641 583.757813 313.236328 C 585.997437 314.860046 588.306946 315.125977 590.686523 314.03418 C 593.066101 312.942383 595.207642 311.584656 597.111328 309.960938 C 597.335266 309.792969 597.53125 309.625 597.699219 309.457031 C 598.427063 308.953125 599.182922 308.421234 599.966797 307.861328 C 601.870483 306.573547 603.634094 305.173828 605.257813 303.662109 C 606.9375 301.870422 607.833313 299.770844 607.945313 297.363281 C 608.113281 295.011719 608.225281 292.632172 608.28125 290.224609 C 608.28125 289.160797 608.309265 288.097015 608.365234 287.033203 C 608.365234 286.809235 608.39325 286.529297 608.449219 286.193359 C 608.505188 285.633453 608.54718 285.017578 608.575195 284.345703 C 608.60319 283.673828 608.519206 283.085938 608.323242 282.582031 C 608.127258 282.078125 607.777344 281.798187 607.273438 281.742188 C 606.377625 281.686188 605.663757 282.120117 605.131836 283.043945 C 604.599915 283.967773 604.194031 284.849609 603.914063 285.689453 C 603.802063 285.969421 603.718079 286.221344 603.662109 286.445313 C 603.046204 287.957031 602.458313 289.524719 601.898438 291.148438 L 601.226563 293.5 C 601.170593 293.667969 601.142578 293.807953 601.142578 293.919922 C 601.086609 294.087891 601.030579 294.283844 600.974609 294.507813 C 600.806641 295.067719 600.554688 295.48761 600.21875 295.767578 C 599.882813 296.047546 599.406921 296.271484 598.791016 296.439453 C 598.287109 296.607422 597.755188 296.691406 597.195313 296.691406 C 596.915344 296.691406 596.635437 296.719391 596.355469 296.775391 C 596.1875 296.775391 595.963562 296.803375 595.683594 296.859375 C 595.347656 296.915375 595.025696 296.971344 594.717773 297.027344 C 594.409851 297.083344 594.171875 297.083344 594.003906 297.027344 C 593.332031 296.691406 592.814148 296.075531 592.450195 295.179688 C 592.086243 294.283844 591.792297 293.416016 591.568359 292.576172 C 591.45636 292.072266 591.344421 291.652344 591.232422 291.316406 C 590.840515 290.308594 590.476563 289.328796 590.140625 288.376953 C 589.244812 286.025391 588.404968 283.673828 587.621094 281.322266 C 586.389343 277.626953 586.361328 273.903656 587.537109 270.152344 C 588.544922 266.904938 589.748657 263.713562 591.148438 260.578125 C 592.492188 257.330719 593.947876 254.167328 595.515625 251.087891 C 597.027344 247.784485 599.490845 245.516937 602.90625 244.285156 C 606.153687 243.165359 609.457031 242.4375 612.816406 242.101563 C 611.752625 247.588562 611.108704 253.15947 610.884766 258.814453 C 610.828796 261.501953 610.96875 264.189453 611.304688 266.876953 C 611.528625 268.332703 611.808594 269.760406 612.144531 271.160156 C 612.480469 272.727875 612.760437 274.323547 612.984375 275.947266 C 613.376282 279.810577 613.348328 283.701813 612.900391 287.621094 C 612.732422 289.804688 612.620422 291.960266 612.564453 294.087891 C 612.228516 299.294952 612.648438 304.445923 613.824219 309.541016 C 614.328125 311.500671 615.167969 313.404297 616.34375 315.251953 C 617.519531 317.099609 619.087219 318.443359 621.046875 319.283203 C 623.230469 320.011078 625.442017 319.871094 627.681641 318.863281 C 629.921265 317.855469 631.880859 316.679688 633.560547 315.335938 C 635.520203 313.936188 637.311829 312.410492 638.935547 310.758789 C 640.559265 309.107086 641.707031 307.105469 642.378906 304.753906 C 643.162781 301.954407 643.750671 299.126953 644.142578 296.271484 C 644.254578 295.823547 644.366516 295.347656 644.478516 294.84375 C 644.702454 293.779938 644.856445 292.688171 644.94043 291.568359 Z M 815.890625 280.482422 C 816.730469 281.378265 817.220337 282.358063 817.360352 283.421875 C 817.500366 284.485687 817.514282 285.577454 817.402344 286.697266 C 817.290405 289.160828 816.926392 291.708313 816.310547 294.339844 C 815.694702 296.971375 814.518921 299.266907 812.783203 301.226563 C 809.983704 303.802094 806.62439 305.789703 802.705078 307.189453 C 801.753296 307.58139 800.829468 307.973297 799.933594 308.365234 L 795.902344 310.212891 C 794.558594 310.828796 793.242859 311.444641 791.955078 312.060547 C 791.619141 312.172516 791.283203 312.3125 790.947266 312.480469 C 788.98761 313.488281 786.916016 314.244141 784.732422 314.748047 C 782.324829 315.195984 780.043335 315.028015 777.887695 314.244141 C 775.732056 313.460266 773.6745 312.452484 771.714844 311.220703 C 769.755188 310.100891 767.949585 308.869141 766.297852 307.525391 C 764.646118 306.181641 763.288452 304.529968 762.224609 302.570313 C 760.544922 298.651031 759.59314 294.591827 759.369141 290.392578 C 758.977173 286.641266 758.613281 282.862 758.277344 279.054688 C 758.109375 277.207031 757.913452 275.33139 757.689453 273.427734 C 757.633423 272.69986 757.549438 271.944031 757.4375 271.160156 C 757.101563 269.032532 756.989624 266.904968 757.101563 264.777344 C 757.269531 262.817688 757.885376 260.998047 758.949219 259.318359 C 760.796875 256.070953 762.7005 252.823578 764.660156 249.576172 L 767.515625 244.873047 L 768.691406 242.689453 C 769.53125 241.00975 770.511047 239.442062 771.630859 237.986328 C 772.246704 237.314453 772.974609 236.810547 773.814453 236.474609 C 774.654297 236.138672 775.522095 235.886719 776.417969 235.71875 L 776.921875 235.550781 C 782.184937 234.095047 787.53186 233.367188 792.962891 233.367188 C 795.202515 233.535156 797.190063 234.305008 798.925781 235.676758 C 800.661499 237.048508 802.229126 238.546219 803.628906 240.169922 C 803.852905 240.449875 804.104858 240.757813 804.384766 241.09375 C 806.064453 242.605469 807.128296 244.397125 807.576172 246.46875 C 807.68811 248.260422 807.184265 249.940094 806.064453 251.507813 L 804.552734 253.859375 C 803.712891 255.035156 802.929077 256.266907 802.201172 257.554688 C 801.529297 258.898438 800.885376 260.270172 800.269531 261.669922 C 799.877563 262.621765 799.485718 263.517578 799.09375 264.357422 C 797.022095 268.66864 794.502625 272.69986 791.535156 276.451172 C 786.496094 282.722046 780.561218 288.152954 773.730469 292.744141 C 774.290405 294.255859 775.130188 295.627594 776.25 296.859375 C 778.153687 298.651062 780.337219 300.022766 782.800781 300.974609 C 784.256531 301.590515 785.740234 302.094391 787.251953 302.486328 C 788.763672 302.878265 790.303345 302.96225 791.871094 302.738281 C 794.614624 302.122375 797.218079 301.142578 799.681641 299.798828 C 801.921265 298.567047 803.964844 297.083344 805.8125 295.347656 L 805.980469 295.179688 C 806.988281 294.339844 807.982056 293.346039 808.961914 292.198242 C 809.941772 291.050446 810.543579 289.860687 810.767578 288.628906 C 810.823608 288.013 810.683594 287.42514 810.347656 286.865234 C 810.011719 286.305328 809.619751 285.773438 809.171875 285.269531 L 808.667969 284.597656 L 808.332031 284.09375 C 808.164063 283.813782 807.996094 283.561859 807.828125 283.337891 C 807.660156 283.113932 807.492188 282.945964 807.324219 282.833984 C 806.820313 282.554016 806.288452 282.414063 805.728516 282.414063 C 805.168579 282.414063 804.636719 282.470062 804.132813 282.582031 C 803.852905 282.638031 803.544922 282.694 803.208984 282.75 C 802.425171 282.861969 801.655273 283.043945 800.899414 283.295898 C 800.143555 283.547852 799.653687 284.03775 799.429688 284.765625 C 799.317749 285.381531 799.429688 286.025391 799.765625 286.697266 L 799.765625 286.78125 C 799.821655 286.83725 799.90564 286.949219 800.017578 287.117188 C 800.241577 287.509125 800.507446 287.957031 800.81543 288.460938 C 801.123413 288.964844 801.277344 289.440735 801.277344 289.888672 C 801.277344 290.336609 800.96936 290.616547 800.353516 290.728516 C 800.073608 290.784515 799.835571 290.7565 799.639648 290.644531 C 799.443726 290.532562 799.261719 290.392578 799.09375 290.224609 C 799.03772 290.16861 798.981812 290.140625 798.925781 290.140625 C 798.533813 289.748688 798.113892 289.384766 797.666016 289.048828 C 796.93811 288.488922 796.238281 287.901062 795.566406 287.285156 C 794.782593 286.66925 794.068726 285.829437 793.424805 284.765625 C 792.780884 283.701813 792.598999 282.638031 792.878906 281.574219 C 793.382813 280.566406 794.36261 279.866547 795.818359 279.474609 C 798.393921 277.906891 801.053345 276.507172 803.796875 275.275391 C 804.804688 274.771484 805.714478 274.463531 806.526367 274.351563 C 807.338257 274.239594 808.248047 274.519531 809.255859 275.191406 C 809.423828 275.359375 809.619751 275.499359 809.84375 275.611328 C 812.083374 277.067078 814.098938 278.690735 815.890625 280.482422 Z M 771.630859 285.017578 C 772.694702 283.953766 773.814453 282.917969 774.990234 281.910156 C 776.054077 281.070313 777.173828 280.286469 778.349609 279.558594 C 779.63739 278.71875 780.897095 277.794922 782.128906 276.787109 C 783.808594 275.051422 785.068359 272.979828 785.908203 270.572266 C 786.18811 269.844391 786.496094 269.144531 786.832031 268.472656 C 788.231812 265.561188 789.6875 262.70575 791.199219 259.90625 C 791.983032 258.5065 792.766968 257.134766 793.550781 255.791016 C 793.66272 255.567047 793.802734 255.315109 793.970703 255.035156 C 794.362671 254.53125 794.670532 253.999359 794.894531 253.439453 C 795.11853 252.879547 795.090454 252.347656 794.810547 251.84375 C 794.306641 251.059891 793.634766 250.304047 792.794922 249.576172 C 792.402954 249.240234 792.067017 248.904297 791.787109 248.568359 L 791.619141 248.400391 C 791.059204 247.7845 790.49939 247.280594 789.939453 246.888672 C 789.379517 246.49675 788.623657 246.272781 787.671875 246.216797 C 786.328125 246.272781 784.984375 246.46875 783.640625 246.804688 C 783.080688 246.916672 782.548828 247.000656 782.044922 247.056641 C 780.589172 247.336594 779.133484 247.588547 777.677734 247.8125 C 777.509766 247.868484 777.313843 247.896484 777.089844 247.896484 C 776.30603 247.952469 775.606079 248.204422 774.990234 248.652344 C 774.710327 248.932297 774.514282 249.198242 774.402344 249.450195 C 774.290405 249.702148 774.178345 249.996094 774.066406 250.332031 C 774.010376 250.444016 773.982422 250.583984 773.982422 250.751953 C 773.478516 252.151703 773.03064 253.551422 772.638672 254.951172 C 770.679016 260.550171 769.671265 266.317017 769.615234 272.251953 C 769.783203 276.563171 770.455078 280.818329 771.630859 285.017578 Z"/>
</svg>
